<mxfile host="app.diagrams.net" modified="2021-12-29T13:46:37.036Z" agent="5.0 (Windows NT 10.0; Win64; x64) AppleWebKit/537.36 (KHTML, like Gecko) Chrome/96.0.4664.110 Safari/537.36" etag="o1z5VyUZPgu9W6I9a1X7" version="16.1.0" type="github">
  <diagram id="pQsoJfz3YJzrk_rftE3r" name="Page-1">
    <mxGraphModel dx="1483" dy="3119" grid="1" gridSize="10" guides="1" tooltips="1" connect="1" arrows="1" fold="1" page="1" pageScale="1" pageWidth="827" pageHeight="1169" math="0" shadow="0">
      <root>
        <mxCell id="0" />
        <mxCell id="1" parent="0" />
        <mxCell id="SQ4FsBicLCbHLQmC9l4r-21" style="rounded=0;orthogonalLoop=1;jettySize=auto;html=1;exitX=1;exitY=0.5;exitDx=0;exitDy=0;shape=flexArrow;entryX=0;entryY=0.456;entryDx=0;entryDy=0;entryPerimeter=0;" parent="1" source="SQ4FsBicLCbHLQmC9l4r-7" target="SQ4FsBicLCbHLQmC9l4r-19" edge="1">
          <mxGeometry relative="1" as="geometry">
            <mxPoint x="1310" y="-1330" as="targetPoint" />
          </mxGeometry>
        </mxCell>
        <mxCell id="SQ4FsBicLCbHLQmC9l4r-23" value="" style="group" parent="1" vertex="1" connectable="0">
          <mxGeometry x="1400" y="-1753" width="1410" height="1170" as="geometry" />
        </mxCell>
        <mxCell id="SQ4FsBicLCbHLQmC9l4r-25" value="" style="group" parent="SQ4FsBicLCbHLQmC9l4r-23" vertex="1" connectable="0">
          <mxGeometry y="-110" width="1410" height="1170" as="geometry" />
        </mxCell>
        <mxCell id="SQ4FsBicLCbHLQmC9l4r-19" value="" style="rounded=0;whiteSpace=wrap;html=1;fillColor=#ffe6cc;strokeColor=#d79b00;" parent="SQ4FsBicLCbHLQmC9l4r-25" vertex="1">
          <mxGeometry width="1410" height="1170" as="geometry" />
        </mxCell>
        <mxCell id="SQ4FsBicLCbHLQmC9l4r-11" value="&lt;pre style=&quot;margin-top: 0px ; margin-bottom: 0px&quot;&gt;&lt;span style=&quot;color: #ff6aad&quot;&gt;QT_INIT_METAOBJECT&lt;/span&gt;&lt;span style=&quot;color: #bec0c2&quot;&gt; &lt;/span&gt;&lt;span style=&quot;font-style: italic ; color: #45c6d6&quot;&gt;const&lt;/span&gt;&lt;span style=&quot;color: #bec0c2&quot;&gt; &lt;/span&gt;&lt;span style=&quot;color: #ff8080&quot;&gt;QMetaObject&lt;/span&gt;&lt;span style=&quot;color: #bec0c2&quot;&gt; &lt;/span&gt;&lt;span style=&quot;color: #ff8080&quot;&gt;Counter&lt;/span&gt;::staticMetaObject&lt;span style=&quot;color: #bec0c2&quot;&gt; &lt;/span&gt;&lt;span style=&quot;color: #d6bb9a&quot;&gt;=&lt;/span&gt;&lt;span style=&quot;color: #bec0c2&quot;&gt; &lt;/span&gt;{&lt;span style=&quot;color: #bec0c2&quot;&gt; &lt;/span&gt;{&lt;/pre&gt;&lt;br&gt;&lt;pre style=&quot;margin-top: 0px ; margin-bottom: 0px&quot;&gt;&lt;span style=&quot;color: #bec0c2&quot;&gt;    &lt;/span&gt;&lt;span style=&quot;color: #ff8080&quot;&gt;QMetaObject&lt;/span&gt;::&lt;span style=&quot;color: #ff8080&quot;&gt;SuperData&lt;/span&gt;::link&amp;lt;QObject::staticMetaObject&amp;gt;(),&lt;/pre&gt;&lt;br&gt;&lt;pre style=&quot;margin-top: 0px ; margin-bottom: 0px&quot;&gt;&lt;span style=&quot;color: #bec0c2&quot;&gt;    &lt;/span&gt;qt_meta_stringdata_Counter&lt;span style=&quot;color: #d6bb9a&quot;&gt;.&lt;/span&gt;data,&lt;/pre&gt;&lt;br&gt;&lt;pre style=&quot;margin-top: 0px ; margin-bottom: 0px&quot;&gt;&lt;span style=&quot;color: #bec0c2&quot;&gt;    &lt;/span&gt;qt_meta_data_Counter,&lt;/pre&gt;&lt;br&gt;&lt;pre style=&quot;margin-top: 0px ; margin-bottom: 0px&quot;&gt;&lt;span style=&quot;color: #bec0c2&quot;&gt;    &lt;/span&gt;qt_static_metacall,&lt;/pre&gt;&lt;br&gt;&lt;pre style=&quot;margin-top: 0px ; margin-bottom: 0px&quot;&gt;&lt;span style=&quot;color: #bec0c2&quot;&gt;    &lt;/span&gt;&lt;span style=&quot;font-style: italic ; color: #45c6d6&quot;&gt;nullptr&lt;/span&gt;,&lt;/pre&gt;&lt;br&gt;&lt;pre style=&quot;margin-top: 0px ; margin-bottom: 0px&quot;&gt;&lt;span style=&quot;color: #bec0c2&quot;&gt;    &lt;/span&gt;&lt;span style=&quot;font-style: italic ; color: #45c6d6&quot;&gt;nullptr&lt;/span&gt;&lt;/pre&gt;&lt;br&gt;&lt;pre style=&quot;margin-top: 0px ; margin-bottom: 0px&quot;&gt;}&lt;span style=&quot;color: #bec0c2&quot;&gt; &lt;/span&gt;};&lt;/pre&gt;" style="text;html=1;strokeColor=#666666;fillColor=#f5f5f5;align=left;verticalAlign=middle;whiteSpace=wrap;rounded=0;fontColor=#333333;" parent="SQ4FsBicLCbHLQmC9l4r-25" vertex="1">
          <mxGeometry x="40" y="40" width="550" height="220" as="geometry" />
        </mxCell>
        <mxCell id="SQ4FsBicLCbHLQmC9l4r-12" value="&lt;pre style=&quot;margin-top: 0px ; margin-bottom: 0px&quot;&gt;&lt;pre style=&quot;margin-top: 0px ; margin-bottom: 0px&quot;&gt;&lt;span style=&quot;font-style: italic ; color: #45c6d6&quot;&gt;struct&lt;/span&gt;&lt;span style=&quot;color: #bec0c2&quot;&gt; &lt;/span&gt;&lt;span style=&quot;color: #ff8080&quot;&gt;qt_meta_stringdata_Counter_t&lt;/span&gt;&lt;span style=&quot;color: #bec0c2&quot;&gt; &lt;/span&gt;{&lt;/pre&gt;&lt;pre style=&quot;margin-top: 0px ; margin-bottom: 0px&quot;&gt;&lt;span style=&quot;color: #bec0c2&quot;&gt;    &lt;/span&gt;&lt;span style=&quot;color: #ff8080&quot;&gt;QByteArrayData&lt;/span&gt;&lt;span style=&quot;color: #bec0c2&quot;&gt; &lt;/span&gt;data[&lt;span style=&quot;color: #8a602c&quot;&gt;6&lt;/span&gt;];&lt;/pre&gt;&lt;pre style=&quot;margin-top: 0px ; margin-bottom: 0px&quot;&gt;&lt;span style=&quot;color: #bec0c2&quot;&gt;    &lt;/span&gt;&lt;span style=&quot;color: #d69aa7&quot;&gt;char&lt;/span&gt;&lt;span style=&quot;color: #bec0c2&quot;&gt; &lt;/span&gt;stringdata0[&lt;span style=&quot;color: #8a602c&quot;&gt;46&lt;/span&gt;];&lt;/pre&gt;&lt;pre style=&quot;margin-top: 0px ; margin-bottom: 0px&quot;&gt;};&lt;/pre&gt;&lt;pre style=&quot;margin-top: 0px ; margin-bottom: 0px&quot;&gt;&lt;br&gt;&lt;/pre&gt;&lt;pre style=&quot;margin-top: 0px ; margin-bottom: 0px&quot;&gt;&lt;span style=&quot;font-family: &amp;#34;helvetica&amp;#34; ; white-space: normal ; color: rgb(255 , 106 , 173)&quot;&gt;#define&lt;/span&gt;&lt;span style=&quot;font-family: &amp;#34;helvetica&amp;#34; ; white-space: normal ; color: rgb(190 , 192 , 194)&quot;&gt; &lt;/span&gt;&lt;span style=&quot;font-family: &amp;#34;helvetica&amp;#34; ; white-space: normal ; color: rgb(255 , 106 , 173)&quot;&gt;QT_MOC_LITERAL&lt;/span&gt;&lt;span style=&quot;font-family: &amp;#34;helvetica&amp;#34; ; white-space: normal&quot;&gt;(idx,&lt;/span&gt;&lt;span style=&quot;font-family: &amp;#34;helvetica&amp;#34; ; white-space: normal ; color: rgb(190 , 192 , 194)&quot;&gt; &lt;/span&gt;&lt;span style=&quot;font-family: &amp;#34;helvetica&amp;#34; ; white-space: normal&quot;&gt;ofs,&lt;/span&gt;&lt;span style=&quot;font-family: &amp;#34;helvetica&amp;#34; ; white-space: normal ; color: rgb(190 , 192 , 194)&quot;&gt; &lt;/span&gt;&lt;span style=&quot;font-family: &amp;#34;helvetica&amp;#34; ; white-space: normal&quot;&gt;len)&lt;/span&gt;&lt;span style=&quot;font-family: &amp;#34;helvetica&amp;#34; ; white-space: normal ; color: rgb(190 , 192 , 194)&quot;&gt; &lt;/span&gt;&lt;span style=&quot;font-family: &amp;#34;helvetica&amp;#34; ; white-space: normal&quot;&gt;\&lt;/span&gt;&lt;br&gt;&lt;/pre&gt;&lt;pre style=&quot;margin-top: 0px ; margin-bottom: 0px&quot;&gt;&lt;pre style=&quot;margin-top: 0px ; margin-bottom: 0px&quot;&gt;&lt;span style=&quot;color: #bec0c2&quot;&gt;    &lt;/span&gt;&lt;span style=&quot;color: #ff6aad&quot;&gt;Q_STATIC_BYTE_ARRAY_DATA_HEADER_INITIALIZER_WITH_OFFSET&lt;/span&gt;(len,&lt;span style=&quot;color: #bec0c2&quot;&gt; &lt;/span&gt;\&lt;/pre&gt;&lt;pre style=&quot;margin-top: 0px ; margin-bottom: 0px&quot;&gt;&lt;span style=&quot;color: #bec0c2&quot;&gt;    &lt;/span&gt;qptrdiff(&lt;span style=&quot;color: #ff6aad&quot;&gt;offsetof&lt;/span&gt;(qt_meta_stringdata_Counter_t,&lt;span style=&quot;color: #bec0c2&quot;&gt; &lt;/span&gt;stringdata0)&lt;span style=&quot;color: #bec0c2&quot;&gt; &lt;/span&gt;&lt;span style=&quot;color: #d6bb9a&quot;&gt;+&lt;/span&gt;&lt;span style=&quot;color: #bec0c2&quot;&gt; &lt;/span&gt;ofs&lt;span style=&quot;color: #bec0c2&quot;&gt; &lt;/span&gt;\&lt;/pre&gt;&lt;pre style=&quot;margin-top: 0px ; margin-bottom: 0px&quot;&gt;&lt;span style=&quot;color: #bec0c2&quot;&gt;        &lt;/span&gt;&lt;span style=&quot;color: #d6bb9a&quot;&gt;-&lt;/span&gt;&lt;span style=&quot;color: #bec0c2&quot;&gt; &lt;/span&gt;idx&lt;span style=&quot;color: #bec0c2&quot;&gt; &lt;/span&gt;&lt;span style=&quot;color: #d6bb9a&quot;&gt;*&lt;/span&gt;&lt;span style=&quot;color: #bec0c2&quot;&gt; &lt;/span&gt;&lt;span style=&quot;font-style: italic ; color: #45c6d6&quot;&gt;sizeof&lt;/span&gt;(QByteArrayData))&lt;span style=&quot;color: #bec0c2&quot;&gt; &lt;/span&gt;\&lt;/pre&gt;&lt;pre style=&quot;margin-top: 0px ; margin-bottom: 0px&quot;&gt;&lt;span style=&quot;color: #bec0c2&quot;&gt;    &lt;/span&gt;)&lt;/pre&gt;&lt;/pre&gt;&lt;/pre&gt;&lt;pre style=&quot;margin-top: 0px ; margin-bottom: 0px&quot;&gt;&lt;span style=&quot;font-style: italic ; color: #45c6d6&quot;&gt;&lt;br&gt;&lt;/span&gt;&lt;/pre&gt;&lt;pre style=&quot;margin-top: 0px ; margin-bottom: 0px&quot;&gt;&lt;span style=&quot;font-style: italic ; color: #45c6d6&quot;&gt;static&lt;/span&gt;&lt;span style=&quot;color: #bec0c2&quot;&gt; &lt;/span&gt;&lt;span style=&quot;font-style: italic ; color: #45c6d6&quot;&gt;const&lt;/span&gt;&lt;span style=&quot;color: #bec0c2&quot;&gt; &lt;/span&gt;&lt;span style=&quot;color: #ff8080&quot;&gt;qt_meta_stringdata_Counter_t&lt;/span&gt;&lt;span style=&quot;color: #bec0c2&quot;&gt; &lt;/span&gt;qt_meta_stringdata_Counter&lt;span style=&quot;color: #bec0c2&quot;&gt; &lt;/span&gt;&lt;span style=&quot;color: #d6bb9a&quot;&gt;=&lt;/span&gt;&lt;span style=&quot;color: #bec0c2&quot;&gt; &lt;/span&gt;{&lt;/pre&gt;&lt;pre style=&quot;margin-top: 0px ; margin-bottom: 0px&quot;&gt;    {&lt;/pre&gt;&lt;pre style=&quot;margin-top: 0px ; margin-bottom: 0px&quot;&gt;&lt;span style=&quot;color: #ff6aad&quot;&gt;&lt;span&gt; &lt;/span&gt;QT_MOC_LITERAL&lt;/span&gt;(&lt;span style=&quot;color: #8a602c&quot;&gt;0&lt;/span&gt;,&lt;span style=&quot;color: #bec0c2&quot;&gt; &lt;/span&gt;&lt;span style=&quot;color: #8a602c&quot;&gt;0&lt;/span&gt;,&lt;span style=&quot;color: #bec0c2&quot;&gt; &lt;/span&gt;&lt;span style=&quot;color: #8a602c&quot;&gt;7&lt;/span&gt;),&lt;span style=&quot;color: #bec0c2&quot;&gt; &lt;/span&gt;&lt;span style=&quot;font-style: italic ; color: #a8abb0&quot;&gt;//&lt;/span&gt;&lt;span style=&quot;color: #bec0c2&quot;&gt; &lt;/span&gt;&lt;span style=&quot;font-style: italic ; color: #a8abb0&quot;&gt;&quot;Counter&quot;&lt;/span&gt;&lt;/pre&gt;&lt;pre style=&quot;margin-top: 0px ; margin-bottom: 0px&quot;&gt;&lt;span style=&quot;color: #ff6aad&quot;&gt;&lt;span&gt; &lt;/span&gt;QT_MOC_LITERAL&lt;/span&gt;(&lt;span style=&quot;color: #8a602c&quot;&gt;1&lt;/span&gt;,&lt;span style=&quot;color: #bec0c2&quot;&gt; &lt;/span&gt;&lt;span style=&quot;color: #8a602c&quot;&gt;8&lt;/span&gt;,&lt;span style=&quot;color: #bec0c2&quot;&gt; &lt;/span&gt;&lt;span style=&quot;color: #8a602c&quot;&gt;12&lt;/span&gt;),&lt;span style=&quot;color: #bec0c2&quot;&gt; &lt;/span&gt;&lt;span style=&quot;font-style: italic ; color: #a8abb0&quot;&gt;//&lt;/span&gt;&lt;span style=&quot;color: #bec0c2&quot;&gt; &lt;/span&gt;&lt;span style=&quot;font-style: italic ; color: #a8abb0&quot;&gt;&quot;valueChanged&quot;&lt;/span&gt;&lt;/pre&gt;&lt;pre style=&quot;margin-top: 0px ; margin-bottom: 0px&quot;&gt;&lt;span style=&quot;color: #ff6aad&quot;&gt;&lt;span&gt; &lt;/span&gt;QT_MOC_LITERAL&lt;/span&gt;(&lt;span style=&quot;color: #8a602c&quot;&gt;2&lt;/span&gt;,&lt;span style=&quot;color: #bec0c2&quot;&gt; &lt;/span&gt;&lt;span style=&quot;color: #8a602c&quot;&gt;21&lt;/span&gt;,&lt;span style=&quot;color: #bec0c2&quot;&gt; &lt;/span&gt;&lt;span style=&quot;color: #8a602c&quot;&gt;0&lt;/span&gt;),&lt;span style=&quot;color: #bec0c2&quot;&gt; &lt;/span&gt;&lt;span style=&quot;font-style: italic ; color: #a8abb0&quot;&gt;//&lt;/span&gt;&lt;span style=&quot;color: #bec0c2&quot;&gt; &lt;/span&gt;&lt;span style=&quot;font-style: italic ; color: #a8abb0&quot;&gt;&quot;&quot;&lt;/span&gt;&lt;/pre&gt;&lt;pre style=&quot;margin-top: 0px ; margin-bottom: 0px&quot;&gt;&lt;span style=&quot;color: #ff6aad&quot;&gt;&lt;span&gt; &lt;/span&gt;QT_MOC_LITERAL&lt;/span&gt;(&lt;span style=&quot;color: #8a602c&quot;&gt;3&lt;/span&gt;,&lt;span style=&quot;color: #bec0c2&quot;&gt; &lt;/span&gt;&lt;span style=&quot;color: #8a602c&quot;&gt;22&lt;/span&gt;,&lt;span style=&quot;color: #bec0c2&quot;&gt; &lt;/span&gt;&lt;span style=&quot;color: #8a602c&quot;&gt;8&lt;/span&gt;),&lt;span style=&quot;color: #bec0c2&quot;&gt; &lt;/span&gt;&lt;span style=&quot;font-style: italic ; color: #a8abb0&quot;&gt;//&lt;/span&gt;&lt;span style=&quot;color: #bec0c2&quot;&gt; &lt;/span&gt;&lt;span style=&quot;font-style: italic ; color: #a8abb0&quot;&gt;&quot;newValue&quot;&lt;/span&gt;&lt;/pre&gt;&lt;pre style=&quot;margin-top: 0px ; margin-bottom: 0px&quot;&gt;&lt;span style=&quot;color: #ff6aad&quot;&gt;&lt;span&gt; &lt;/span&gt;QT_MOC_LITERAL&lt;/span&gt;(&lt;span style=&quot;color: #8a602c&quot;&gt;4&lt;/span&gt;,&lt;span style=&quot;color: #bec0c2&quot;&gt; &lt;/span&gt;&lt;span style=&quot;color: #8a602c&quot;&gt;31&lt;/span&gt;,&lt;span style=&quot;color: #bec0c2&quot;&gt; &lt;/span&gt;&lt;span style=&quot;color: #8a602c&quot;&gt;8&lt;/span&gt;),&lt;span style=&quot;color: #bec0c2&quot;&gt; &lt;/span&gt;&lt;span style=&quot;font-style: italic ; color: #a8abb0&quot;&gt;//&lt;/span&gt;&lt;span style=&quot;color: #bec0c2&quot;&gt; &lt;/span&gt;&lt;span style=&quot;font-style: italic ; color: #a8abb0&quot;&gt;&quot;setValue&quot;&lt;/span&gt;&lt;/pre&gt;&lt;pre style=&quot;margin-top: 0px ; margin-bottom: 0px&quot;&gt;&lt;span style=&quot;color: #ff6aad&quot;&gt;&lt;span&gt; &lt;/span&gt;QT_MOC_LITERAL&lt;/span&gt;(&lt;span style=&quot;color: #8a602c&quot;&gt;5&lt;/span&gt;,&lt;span style=&quot;color: #bec0c2&quot;&gt; &lt;/span&gt;&lt;span style=&quot;color: #8a602c&quot;&gt;40&lt;/span&gt;,&lt;span style=&quot;color: #bec0c2&quot;&gt; &lt;/span&gt;&lt;span style=&quot;color: #8a602c&quot;&gt;5&lt;/span&gt;)&lt;span style=&quot;color: #bec0c2&quot;&gt; &lt;/span&gt;&lt;span style=&quot;font-style: italic ; color: #a8abb0&quot;&gt;//&lt;/span&gt;&lt;span style=&quot;color: #bec0c2&quot;&gt; &lt;/span&gt;&lt;span style=&quot;font-style: italic ; color: #a8abb0&quot;&gt;&quot;value&quot;&lt;/span&gt;&lt;/pre&gt;&lt;pre style=&quot;margin-top: 0px ; margin-bottom: 0px&quot;&gt;    },&lt;/pre&gt;&lt;br&gt;&lt;pre style=&quot;margin-top: 0px ; margin-bottom: 0px&quot;&gt;&lt;span style=&quot;color: #bec0c2&quot;&gt;    &lt;/span&gt;&lt;span style=&quot;color: #d69545&quot;&gt;&quot;Counter\0valueChanged\0\0newValue\0setValue\0&quot;&lt;/span&gt;&lt;/pre&gt;&lt;pre style=&quot;margin-top: 0px ; margin-bottom: 0px&quot;&gt;&lt;span style=&quot;color: #bec0c2&quot;&gt;    &lt;/span&gt;&lt;span style=&quot;color: #d69545&quot;&gt;&quot;value&quot;&lt;/span&gt;&lt;/pre&gt;&lt;pre style=&quot;margin-top: 0px ; margin-bottom: 0px&quot;&gt;};&lt;/pre&gt;" style="text;html=1;strokeColor=#666666;fillColor=#f5f5f5;align=left;verticalAlign=middle;whiteSpace=wrap;rounded=0;fontColor=#333333;" parent="SQ4FsBicLCbHLQmC9l4r-25" vertex="1">
          <mxGeometry x="830" y="29" width="540" height="371" as="geometry" />
        </mxCell>
        <mxCell id="SQ4FsBicLCbHLQmC9l4r-13" value="&lt;pre style=&quot;margin-top: 0px ; margin-bottom: 0px&quot;&gt;&lt;span style=&quot;font-style: italic ; color: #45c6d6&quot;&gt;static&lt;/span&gt;&lt;span style=&quot;color: #bec0c2&quot;&gt; &lt;/span&gt;&lt;span style=&quot;font-style: italic ; color: #45c6d6&quot;&gt;const&lt;/span&gt;&lt;span style=&quot;color: #bec0c2&quot;&gt; &lt;/span&gt;&lt;span style=&quot;color: #ff8080&quot;&gt;uint&lt;/span&gt;&lt;span style=&quot;color: #bec0c2&quot;&gt; &lt;/span&gt;qt_meta_data_Counter[]&lt;span style=&quot;color: #bec0c2&quot;&gt; &lt;/span&gt;&lt;span style=&quot;color: #d6bb9a&quot;&gt;=&lt;/span&gt;&lt;span style=&quot;color: #bec0c2&quot;&gt; &lt;/span&gt;{&lt;/pre&gt;&lt;pre style=&quot;margin-top: 0px ; margin-bottom: 0px&quot;&gt;&lt;span style=&quot;font-family: &amp;#34;helvetica&amp;#34; ; white-space: normal ; font-style: italic ; color: rgb(168 , 171 , 176)&quot;&gt;&lt;br&gt;&lt;/span&gt;&lt;/pre&gt;&lt;pre style=&quot;margin-top: 0px ; margin-bottom: 0px&quot;&gt;&lt;span style=&quot;font-family: &amp;#34;helvetica&amp;#34; ; white-space: normal ; font-style: italic ; color: rgb(168 , 171 , 176)&quot;&gt;//&lt;/span&gt;&lt;span style=&quot;font-family: &amp;#34;helvetica&amp;#34; ; white-space: normal ; color: rgb(190 , 192 , 194)&quot;&gt; &lt;/span&gt;&lt;span style=&quot;font-family: &amp;#34;helvetica&amp;#34; ; white-space: normal ; font-style: italic ; color: rgb(168 , 171 , 176)&quot;&gt;content:&lt;/span&gt;&lt;/pre&gt;&lt;pre style=&quot;margin-top: 0px ; margin-bottom: 0px&quot;&gt;&lt;span style=&quot;color: #bec0c2&quot;&gt;       &lt;/span&gt;&lt;span style=&quot;color: #8a602c&quot;&gt;8&lt;/span&gt;,&lt;span style=&quot;color: #bec0c2&quot;&gt;       &lt;/span&gt;&lt;span style=&quot;font-style: italic ; color: #a8abb0&quot;&gt;//&lt;/span&gt;&lt;span style=&quot;color: #bec0c2&quot;&gt; &lt;/span&gt;&lt;span style=&quot;font-style: italic ; color: #a8abb0&quot;&gt;revision&lt;/span&gt;&lt;/pre&gt;&lt;pre style=&quot;margin-top: 0px ; margin-bottom: 0px&quot;&gt;&lt;span style=&quot;color: #bec0c2&quot;&gt;       &lt;/span&gt;&lt;span style=&quot;color: #8a602c&quot;&gt;0&lt;/span&gt;,&lt;span style=&quot;color: #bec0c2&quot;&gt;       &lt;/span&gt;&lt;span style=&quot;font-style: italic ; color: #a8abb0&quot;&gt;//&lt;/span&gt;&lt;span style=&quot;color: #bec0c2&quot;&gt; &lt;/span&gt;&lt;span style=&quot;font-style: italic ; color: #a8abb0&quot;&gt;classname&lt;/span&gt;&lt;/pre&gt;&lt;pre style=&quot;margin-top: 0px ; margin-bottom: 0px&quot;&gt;&lt;span style=&quot;color: #bec0c2&quot;&gt;       &lt;/span&gt;&lt;span style=&quot;color: #8a602c&quot;&gt;0&lt;/span&gt;,&lt;span style=&quot;color: #bec0c2&quot;&gt;    &lt;/span&gt;&lt;span style=&quot;color: #8a602c&quot;&gt;0&lt;/span&gt;,&lt;span style=&quot;color: #bec0c2&quot;&gt; &lt;/span&gt;&lt;span style=&quot;font-style: italic ; color: #a8abb0&quot;&gt;//&lt;/span&gt;&lt;span style=&quot;color: #bec0c2&quot;&gt; &lt;/span&gt;&lt;span style=&quot;font-style: italic ; color: #a8abb0&quot;&gt;classinfo&lt;/span&gt;&lt;/pre&gt;&lt;pre style=&quot;margin-top: 0px ; margin-bottom: 0px&quot;&gt;&lt;span style=&quot;color: #bec0c2&quot;&gt;       &lt;/span&gt;&lt;span style=&quot;color: #8a602c&quot;&gt;2&lt;/span&gt;,&lt;span style=&quot;color: #bec0c2&quot;&gt;   &lt;/span&gt;&lt;span style=&quot;color: #8a602c&quot;&gt;14&lt;/span&gt;,&lt;span style=&quot;color: #bec0c2&quot;&gt; &lt;/span&gt;&lt;span style=&quot;font-style: italic ; color: #a8abb0&quot;&gt;//&lt;/span&gt;&lt;span style=&quot;color: #bec0c2&quot;&gt; &lt;/span&gt;&lt;span style=&quot;font-style: italic ; color: #a8abb0&quot;&gt;methods&lt;/span&gt;&lt;/pre&gt;&lt;pre style=&quot;margin-top: 0px ; margin-bottom: 0px&quot;&gt;&lt;span style=&quot;color: #bec0c2&quot;&gt;       &lt;/span&gt;&lt;span style=&quot;color: #8a602c&quot;&gt;0&lt;/span&gt;,&lt;span style=&quot;color: #bec0c2&quot;&gt;    &lt;/span&gt;&lt;span style=&quot;color: #8a602c&quot;&gt;0&lt;/span&gt;,&lt;span style=&quot;color: #bec0c2&quot;&gt; &lt;/span&gt;&lt;span style=&quot;font-style: italic ; color: #a8abb0&quot;&gt;//&lt;/span&gt;&lt;span style=&quot;color: #bec0c2&quot;&gt; &lt;/span&gt;&lt;span style=&quot;font-style: italic ; color: #a8abb0&quot;&gt;properties&lt;/span&gt;&lt;/pre&gt;&lt;pre style=&quot;margin-top: 0px ; margin-bottom: 0px&quot;&gt;&lt;span style=&quot;color: #bec0c2&quot;&gt;       &lt;/span&gt;&lt;span style=&quot;color: #8a602c&quot;&gt;0&lt;/span&gt;,&lt;span style=&quot;color: #bec0c2&quot;&gt;    &lt;/span&gt;&lt;span style=&quot;color: #8a602c&quot;&gt;0&lt;/span&gt;,&lt;span style=&quot;color: #bec0c2&quot;&gt; &lt;/span&gt;&lt;span style=&quot;font-style: italic ; color: #a8abb0&quot;&gt;//&lt;/span&gt;&lt;span style=&quot;color: #bec0c2&quot;&gt; &lt;/span&gt;&lt;span style=&quot;font-style: italic ; color: #a8abb0&quot;&gt;enums/sets&lt;/span&gt;&lt;/pre&gt;&lt;pre style=&quot;margin-top: 0px ; margin-bottom: 0px&quot;&gt;&lt;span style=&quot;color: #bec0c2&quot;&gt;       &lt;/span&gt;&lt;span style=&quot;color: #8a602c&quot;&gt;0&lt;/span&gt;,&lt;span style=&quot;color: #bec0c2&quot;&gt;    &lt;/span&gt;&lt;span style=&quot;color: #8a602c&quot;&gt;0&lt;/span&gt;,&lt;span style=&quot;color: #bec0c2&quot;&gt; &lt;/span&gt;&lt;span style=&quot;font-style: italic ; color: #a8abb0&quot;&gt;//&lt;/span&gt;&lt;span style=&quot;color: #bec0c2&quot;&gt; &lt;/span&gt;&lt;span style=&quot;font-style: italic ; color: #a8abb0&quot;&gt;constructors&lt;/span&gt;&lt;/pre&gt;&lt;pre style=&quot;margin-top: 0px ; margin-bottom: 0px&quot;&gt;&lt;span style=&quot;color: #bec0c2&quot;&gt;       &lt;/span&gt;&lt;span style=&quot;color: #8a602c&quot;&gt;0&lt;/span&gt;,&lt;span style=&quot;color: #bec0c2&quot;&gt;       &lt;/span&gt;&lt;span style=&quot;font-style: italic ; color: #a8abb0&quot;&gt;//&lt;/span&gt;&lt;span style=&quot;color: #bec0c2&quot;&gt; &lt;/span&gt;&lt;span style=&quot;font-style: italic ; color: #a8abb0&quot;&gt;flags&lt;/span&gt;&lt;/pre&gt;&lt;pre style=&quot;margin-top: 0px ; margin-bottom: 0px&quot;&gt;&lt;span style=&quot;color: #bec0c2&quot;&gt;       &lt;/span&gt;&lt;span style=&quot;color: #8a602c&quot;&gt;1&lt;/span&gt;,&lt;span style=&quot;color: #bec0c2&quot;&gt;       &lt;/span&gt;&lt;span style=&quot;font-style: italic ; color: #a8abb0&quot;&gt;//&lt;/span&gt;&lt;span style=&quot;color: #bec0c2&quot;&gt; &lt;/span&gt;&lt;span style=&quot;font-style: italic ; color: #a8abb0&quot;&gt;signalCount&lt;/span&gt;&lt;/pre&gt;&lt;br&gt;&lt;pre style=&quot;margin-top: 0px ; margin-bottom: 0px&quot;&gt;&lt;span style=&quot;font-family: &amp;#34;helvetica&amp;#34; ; white-space: normal ; font-style: italic ; color: rgb(168 , 171 , 176)&quot;&gt;//&lt;/span&gt;&lt;span style=&quot;font-family: &amp;#34;helvetica&amp;#34; ; white-space: normal ; color: rgb(190 , 192 , 194)&quot;&gt; &lt;/span&gt;&lt;span style=&quot;font-family: &amp;#34;helvetica&amp;#34; ; white-space: normal ; font-style: italic ; color: rgb(168 , 171 , 176)&quot;&gt;signals:&lt;/span&gt;&lt;span style=&quot;font-family: &amp;#34;helvetica&amp;#34; ; white-space: normal ; color: rgb(190 , 192 , 194)&quot;&gt; &lt;/span&gt;&lt;span style=&quot;font-family: &amp;#34;helvetica&amp;#34; ; white-space: normal ; font-style: italic ; color: rgb(168 , 171 , 176)&quot;&gt;name,&lt;/span&gt;&lt;span style=&quot;font-family: &amp;#34;helvetica&amp;#34; ; white-space: normal ; color: rgb(190 , 192 , 194)&quot;&gt; &lt;/span&gt;&lt;span style=&quot;font-family: &amp;#34;helvetica&amp;#34; ; white-space: normal ; font-style: italic ; color: rgb(168 , 171 , 176)&quot;&gt;argc,&lt;/span&gt;&lt;span style=&quot;font-family: &amp;#34;helvetica&amp;#34; ; white-space: normal ; color: rgb(190 , 192 , 194)&quot;&gt; &lt;/span&gt;&lt;span style=&quot;font-family: &amp;#34;helvetica&amp;#34; ; white-space: normal ; font-style: italic ; color: rgb(168 , 171 , 176)&quot;&gt;parameters,&lt;/span&gt;&lt;span style=&quot;font-family: &amp;#34;helvetica&amp;#34; ; white-space: normal ; color: rgb(190 , 192 , 194)&quot;&gt; &lt;/span&gt;&lt;span style=&quot;font-family: &amp;#34;helvetica&amp;#34; ; white-space: normal ; font-style: italic ; color: rgb(168 , 171 , 176)&quot;&gt;tag,&lt;/span&gt;&lt;span style=&quot;font-family: &amp;#34;helvetica&amp;#34; ; white-space: normal ; color: rgb(190 , 192 , 194)&quot;&gt; &lt;/span&gt;&lt;span style=&quot;font-family: &amp;#34;helvetica&amp;#34; ; white-space: normal ; font-style: italic ; color: rgb(168 , 171 , 176)&quot;&gt;flags&lt;/span&gt;&lt;br&gt;&lt;/pre&gt;&lt;pre style=&quot;margin-top: 0px ; margin-bottom: 0px&quot;&gt;&lt;span style=&quot;color: #bec0c2&quot;&gt;      &lt;/span&gt;&lt;span style=&quot;color: #8a602c&quot;&gt;1&lt;/span&gt;,&lt;span style=&quot;color: #bec0c2&quot;&gt;    &lt;/span&gt;&lt;span style=&quot;color: #8a602c&quot;&gt;1&lt;/span&gt;,&lt;span style=&quot;color: #bec0c2&quot;&gt;   &lt;/span&gt;&lt;span style=&quot;color: #8a602c&quot;&gt;24&lt;/span&gt;,&lt;span style=&quot;color: #bec0c2&quot;&gt;    &lt;/span&gt;&lt;span style=&quot;color: #8a602c&quot;&gt;2&lt;/span&gt;,&lt;span style=&quot;color: #bec0c2&quot;&gt; &lt;/span&gt;&lt;span style=&quot;color: #8a602c&quot;&gt;0x06&lt;/span&gt;&lt;span style=&quot;color: #bec0c2&quot;&gt; &lt;/span&gt;&lt;span style=&quot;font-style: italic ; color: #a8abb0&quot;&gt;/*&lt;/span&gt;&lt;span style=&quot;color: #bec0c2&quot;&gt; &lt;/span&gt;&lt;span style=&quot;font-style: italic ; color: #a8abb0&quot;&gt;Public&lt;/span&gt;&lt;span style=&quot;color: #bec0c2&quot;&gt; &lt;/span&gt;&lt;span style=&quot;font-style: italic ; color: #a8abb0&quot;&gt;*/&lt;/span&gt;,&lt;/pre&gt;&lt;br&gt;&lt;pre style=&quot;margin-top: 0px ; margin-bottom: 0px&quot;&gt;&lt;span style=&quot;font-family: &amp;#34;helvetica&amp;#34; ; white-space: normal ; color: rgb(190 , 192 , 194)&quot;&gt; &lt;/span&gt;&lt;span style=&quot;font-family: &amp;#34;helvetica&amp;#34; ; white-space: normal ; font-style: italic ; color: rgb(168 , 171 , 176)&quot;&gt;//&lt;/span&gt;&lt;span style=&quot;font-family: &amp;#34;helvetica&amp;#34; ; white-space: normal ; color: rgb(190 , 192 , 194)&quot;&gt; &lt;/span&gt;&lt;span style=&quot;font-family: &amp;#34;helvetica&amp;#34; ; white-space: normal ; font-style: italic ; color: rgb(168 , 171 , 176)&quot;&gt;slots:&lt;/span&gt;&lt;span style=&quot;font-family: &amp;#34;helvetica&amp;#34; ; white-space: normal ; color: rgb(190 , 192 , 194)&quot;&gt; &lt;/span&gt;&lt;span style=&quot;font-family: &amp;#34;helvetica&amp;#34; ; white-space: normal ; font-style: italic ; color: rgb(168 , 171 , 176)&quot;&gt;name,&lt;/span&gt;&lt;span style=&quot;font-family: &amp;#34;helvetica&amp;#34; ; white-space: normal ; color: rgb(190 , 192 , 194)&quot;&gt; &lt;/span&gt;&lt;span style=&quot;font-family: &amp;#34;helvetica&amp;#34; ; white-space: normal ; font-style: italic ; color: rgb(168 , 171 , 176)&quot;&gt;argc,&lt;/span&gt;&lt;span style=&quot;font-family: &amp;#34;helvetica&amp;#34; ; white-space: normal ; color: rgb(190 , 192 , 194)&quot;&gt; &lt;/span&gt;&lt;span style=&quot;font-family: &amp;#34;helvetica&amp;#34; ; white-space: normal ; font-style: italic ; color: rgb(168 , 171 , 176)&quot;&gt;parameters,&lt;/span&gt;&lt;span style=&quot;font-family: &amp;#34;helvetica&amp;#34; ; white-space: normal ; color: rgb(190 , 192 , 194)&quot;&gt; &lt;/span&gt;&lt;span style=&quot;font-family: &amp;#34;helvetica&amp;#34; ; white-space: normal ; font-style: italic ; color: rgb(168 , 171 , 176)&quot;&gt;tag,&lt;/span&gt;&lt;span style=&quot;font-family: &amp;#34;helvetica&amp;#34; ; white-space: normal ; color: rgb(190 , 192 , 194)&quot;&gt; &lt;/span&gt;&lt;span style=&quot;font-family: &amp;#34;helvetica&amp;#34; ; white-space: normal ; font-style: italic ; color: rgb(168 , 171 , 176)&quot;&gt;flags&lt;/span&gt;&lt;br&gt;&lt;/pre&gt;&lt;pre style=&quot;margin-top: 0px ; margin-bottom: 0px&quot;&gt;&lt;span style=&quot;color: #bec0c2&quot;&gt;       &lt;/span&gt;&lt;span style=&quot;color: #8a602c&quot;&gt;4&lt;/span&gt;,&lt;span style=&quot;color: #bec0c2&quot;&gt;    &lt;/span&gt;&lt;span style=&quot;color: #8a602c&quot;&gt;1&lt;/span&gt;,&lt;span style=&quot;color: #bec0c2&quot;&gt;   &lt;/span&gt;&lt;span style=&quot;color: #8a602c&quot;&gt;27&lt;/span&gt;,&lt;span style=&quot;color: #bec0c2&quot;&gt;    &lt;/span&gt;&lt;span style=&quot;color: #8a602c&quot;&gt;2&lt;/span&gt;,&lt;span style=&quot;color: #bec0c2&quot;&gt; &lt;/span&gt;&lt;span style=&quot;color: #8a602c&quot;&gt;0x0a&lt;/span&gt;&lt;span style=&quot;color: #bec0c2&quot;&gt; &lt;/span&gt;&lt;span style=&quot;font-style: italic ; color: #a8abb0&quot;&gt;/*&lt;/span&gt;&lt;span style=&quot;color: #bec0c2&quot;&gt; &lt;/span&gt;&lt;span style=&quot;font-style: italic ; color: #a8abb0&quot;&gt;Public&lt;/span&gt;&lt;span style=&quot;color: #bec0c2&quot;&gt; &lt;/span&gt;&lt;span style=&quot;font-style: italic ; color: #a8abb0&quot;&gt;*/&lt;/span&gt;,&lt;/pre&gt;&lt;br&gt;&lt;pre style=&quot;margin-top: 0px ; margin-bottom: 0px&quot;&gt;&lt;span style=&quot;font-family: &amp;#34;helvetica&amp;#34; ; white-space: normal ; color: rgb(190 , 192 , 194)&quot;&gt; &lt;/span&gt;&lt;span style=&quot;font-family: &amp;#34;helvetica&amp;#34; ; white-space: normal ; font-style: italic ; color: rgb(168 , 171 , 176)&quot;&gt;//&lt;/span&gt;&lt;span style=&quot;font-family: &amp;#34;helvetica&amp;#34; ; white-space: normal ; color: rgb(190 , 192 , 194)&quot;&gt; &lt;/span&gt;&lt;span style=&quot;font-family: &amp;#34;helvetica&amp;#34; ; white-space: normal ; font-style: italic ; color: rgb(168 , 171 , 176)&quot;&gt;signals:&lt;/span&gt;&lt;span style=&quot;font-family: &amp;#34;helvetica&amp;#34; ; white-space: normal ; color: rgb(190 , 192 , 194)&quot;&gt; &lt;/span&gt;&lt;span style=&quot;font-family: &amp;#34;helvetica&amp;#34; ; white-space: normal ; font-style: italic ; color: rgb(168 , 171 , 176)&quot;&gt;parameters&lt;/span&gt;&lt;br&gt;&lt;/pre&gt;&lt;pre style=&quot;margin-top: 0px ; margin-bottom: 0px&quot;&gt;&lt;span style=&quot;color: #bec0c2&quot;&gt;    &lt;/span&gt;&lt;span style=&quot;color: #ff8080&quot;&gt;QMetaType&lt;/span&gt;::&lt;span style=&quot;font-style: italic ; color: #66a334&quot;&gt;Void&lt;/span&gt;,&lt;span style=&quot;color: #bec0c2&quot;&gt; &lt;/span&gt;&lt;span style=&quot;color: #ff8080&quot;&gt;QMetaType&lt;/span&gt;::&lt;span style=&quot;font-style: italic ; color: #66a334&quot;&gt;Int&lt;/span&gt;,&lt;span style=&quot;color: #bec0c2&quot;&gt;    &lt;/span&gt;&lt;span style=&quot;color: #8a602c&quot;&gt;3&lt;/span&gt;,&lt;/pre&gt;&lt;br&gt;&lt;pre style=&quot;margin-top: 0px ; margin-bottom: 0px&quot;&gt;&lt;span style=&quot;font-family: &amp;#34;helvetica&amp;#34; ; white-space: normal ; color: rgb(190 , 192 , 194)&quot;&gt; &lt;/span&gt;&lt;span style=&quot;font-family: &amp;#34;helvetica&amp;#34; ; white-space: normal ; font-style: italic ; color: rgb(168 , 171 , 176)&quot;&gt;//&lt;/span&gt;&lt;span style=&quot;font-family: &amp;#34;helvetica&amp;#34; ; white-space: normal ; color: rgb(190 , 192 , 194)&quot;&gt; &lt;/span&gt;&lt;span style=&quot;font-family: &amp;#34;helvetica&amp;#34; ; white-space: normal ; font-style: italic ; color: rgb(168 , 171 , 176)&quot;&gt;slots:&lt;/span&gt;&lt;span style=&quot;font-family: &amp;#34;helvetica&amp;#34; ; white-space: normal ; color: rgb(190 , 192 , 194)&quot;&gt; &lt;/span&gt;&lt;span style=&quot;font-family: &amp;#34;helvetica&amp;#34; ; white-space: normal ; font-style: italic ; color: rgb(168 , 171 , 176)&quot;&gt;parameters&lt;/span&gt;&lt;br&gt;&lt;/pre&gt;&lt;pre style=&quot;margin-top: 0px ; margin-bottom: 0px&quot;&gt;&lt;span style=&quot;color: #bec0c2&quot;&gt;    &lt;/span&gt;&lt;span style=&quot;color: #ff8080&quot;&gt;QMetaType&lt;/span&gt;::&lt;span style=&quot;font-style: italic ; color: #66a334&quot;&gt;Void&lt;/span&gt;,&lt;span style=&quot;color: #bec0c2&quot;&gt; &lt;/span&gt;&lt;span style=&quot;color: #ff8080&quot;&gt;QMetaType&lt;/span&gt;::&lt;span style=&quot;font-style: italic ; color: #66a334&quot;&gt;Int&lt;/span&gt;,&lt;span style=&quot;color: #bec0c2&quot;&gt;    &lt;/span&gt;&lt;span style=&quot;color: #8a602c&quot;&gt;5&lt;/span&gt;,&lt;/pre&gt;&lt;pre style=&quot;margin-top: 0px ; margin-bottom: 0px&quot;&gt;&lt;span style=&quot;font-family: &amp;#34;helvetica&amp;#34; ; white-space: normal ; color: rgb(138 , 96 , 44)&quot;&gt;&amp;nbsp; &amp;nbsp; &amp;nbsp; &amp;nbsp;&amp;nbsp;&lt;/span&gt;&lt;/pre&gt;&lt;pre style=&quot;margin-top: 0px ; margin-bottom: 0px&quot;&gt;&lt;span style=&quot;font-family: &amp;#34;helvetica&amp;#34; ; white-space: normal ; color: rgb(138 , 96 , 44)&quot;&gt;&amp;nbsp; &amp;nbsp; &amp;nbsp; &amp;nbsp; &amp;nbsp;0&lt;/span&gt;&lt;span style=&quot;font-family: &amp;#34;helvetica&amp;#34; ; white-space: normal ; color: rgb(190 , 192 , 194)&quot;&gt;        &lt;/span&gt;&lt;span style=&quot;font-family: &amp;#34;helvetica&amp;#34; ; white-space: normal ; font-style: italic ; color: rgb(168 , 171 , 176)&quot;&gt;//&lt;/span&gt;&lt;span style=&quot;font-family: &amp;#34;helvetica&amp;#34; ; white-space: normal ; color: rgb(190 , 192 , 194)&quot;&gt; &lt;/span&gt;&lt;span style=&quot;font-family: &amp;#34;helvetica&amp;#34; ; white-space: normal ; font-style: italic ; color: rgb(168 , 171 , 176)&quot;&gt;eod&lt;/span&gt;&lt;br&gt;&lt;/pre&gt;&lt;pre style=&quot;margin-top: 0px ; margin-bottom: 0px&quot;&gt;};&lt;/pre&gt;" style="text;html=1;strokeColor=#666666;fillColor=#f5f5f5;align=left;verticalAlign=middle;whiteSpace=wrap;rounded=0;fontColor=#333333;" parent="SQ4FsBicLCbHLQmC9l4r-25" vertex="1">
          <mxGeometry x="830" y="440" width="470" height="420" as="geometry" />
        </mxCell>
        <mxCell id="SQ4FsBicLCbHLQmC9l4r-14" value="&lt;pre style=&quot;margin-top: 0px ; margin-bottom: 0px&quot;&gt;&lt;span style=&quot;color: #d69aa7&quot;&gt;void&lt;/span&gt;&lt;span style=&quot;color: #bec0c2&quot;&gt; &lt;/span&gt;&lt;span style=&quot;color: #ff8080&quot;&gt;Counter&lt;/span&gt;::&lt;span style=&quot;font-weight: 600&quot;&gt;qt_static_metacall&lt;/span&gt;(&lt;span style=&quot;color: #ff8080&quot;&gt;QObject&lt;/span&gt;&lt;span style=&quot;color: #bec0c2&quot;&gt; &lt;/span&gt;&lt;span style=&quot;color: #d6bb9a&quot;&gt;*&lt;/span&gt;&lt;span style=&quot;color: #d6bb9a&quot;&gt;_o&lt;/span&gt;,&lt;span style=&quot;color: #bec0c2&quot;&gt; &lt;/span&gt;&lt;span style=&quot;color: #ff8080&quot;&gt;QMetaObject&lt;/span&gt;::&lt;span style=&quot;color: #ff8080&quot;&gt;Call&lt;/span&gt;&lt;span style=&quot;color: #bec0c2&quot;&gt; &lt;/span&gt;&lt;span style=&quot;color: #d6bb9a&quot;&gt;_c&lt;/span&gt;,&lt;span style=&quot;color: #bec0c2&quot;&gt; &lt;/span&gt;&lt;span style=&quot;color: #d69aa7&quot;&gt;int&lt;/span&gt;&lt;span style=&quot;color: #bec0c2&quot;&gt; &lt;/span&gt;&lt;span style=&quot;color: #d6bb9a&quot;&gt;_id&lt;/span&gt;,&lt;span style=&quot;color: #bec0c2&quot;&gt; &lt;/span&gt;&lt;span style=&quot;color: #d69aa7&quot;&gt;void&lt;/span&gt;&lt;span style=&quot;color: #bec0c2&quot;&gt; &lt;/span&gt;&lt;span style=&quot;color: #d6bb9a&quot;&gt;**&lt;/span&gt;&lt;span style=&quot;color: #d6bb9a&quot;&gt;_a&lt;/span&gt;)&lt;/pre&gt;&lt;pre style=&quot;margin-top: 0px ; margin-bottom: 0px&quot;&gt;{&lt;/pre&gt;&lt;pre style=&quot;margin-top: 0px ; margin-bottom: 0px&quot;&gt;&lt;span style=&quot;color: #bec0c2&quot;&gt;    &lt;/span&gt;&lt;span style=&quot;font-style: italic ; color: #45c6d6&quot;&gt;if&lt;/span&gt;&lt;span style=&quot;color: #bec0c2&quot;&gt; &lt;/span&gt;(&lt;span style=&quot;color: #d6bb9a&quot;&gt;_c&lt;/span&gt;&lt;span style=&quot;color: #bec0c2&quot;&gt; &lt;/span&gt;&lt;span style=&quot;color: #d6bb9a&quot;&gt;==&lt;/span&gt;&lt;span style=&quot;color: #bec0c2&quot;&gt; &lt;/span&gt;&lt;span style=&quot;color: #ff8080&quot;&gt;QMetaObject&lt;/span&gt;::&lt;span style=&quot;font-style: italic ; color: #66a334&quot;&gt;InvokeMetaMethod&lt;/span&gt;)&lt;span style=&quot;color: #bec0c2&quot;&gt; &lt;/span&gt;{&lt;/pre&gt;&lt;pre style=&quot;margin-top: 0px ; margin-bottom: 0px&quot;&gt;&lt;span style=&quot;color: #bec0c2&quot;&gt;        &lt;/span&gt;&lt;span style=&quot;font-style: italic ; color: #45c6d6&quot;&gt;auto&lt;/span&gt;&lt;span style=&quot;color: #bec0c2&quot;&gt; &lt;/span&gt;&lt;span style=&quot;color: #d6bb9a&quot;&gt;*&lt;/span&gt;&lt;span style=&quot;color: #d6bb9a&quot;&gt;_t&lt;/span&gt;&lt;span style=&quot;color: #bec0c2&quot;&gt; &lt;/span&gt;&lt;span style=&quot;color: #d6bb9a&quot;&gt;=&lt;/span&gt;&lt;span style=&quot;color: #bec0c2&quot;&gt; &lt;/span&gt;&lt;span style=&quot;font-style: italic ; color: #45c6d6&quot;&gt;static_cast&lt;/span&gt;&amp;lt;&lt;span style=&quot;color: #ff8080&quot;&gt;Counter&lt;/span&gt;&lt;span style=&quot;color: #bec0c2&quot;&gt; &lt;/span&gt;&lt;span style=&quot;color: #d6bb9a&quot;&gt;*&lt;/span&gt;&amp;gt;(&lt;span style=&quot;color: #d6bb9a&quot;&gt;_o&lt;/span&gt;);&lt;/pre&gt;&lt;pre style=&quot;margin-top: 0px ; margin-bottom: 0px&quot;&gt;&lt;span style=&quot;color: #bec0c2&quot;&gt;        &lt;/span&gt;&lt;span style=&quot;color: #ff6aad&quot;&gt;Q_UNUSED&lt;/span&gt;(&lt;span style=&quot;color: #d6bb9a&quot;&gt;_t&lt;/span&gt;)&lt;/pre&gt;&lt;pre style=&quot;margin-top: 0px ; margin-bottom: 0px&quot;&gt;&lt;span style=&quot;color: #bec0c2&quot;&gt;&lt;br&gt;&lt;/span&gt;&lt;/pre&gt;&lt;pre style=&quot;margin-top: 0px ; margin-bottom: 0px&quot;&gt;&lt;span style=&quot;color: #bec0c2&quot;&gt;        &lt;/span&gt;&lt;span style=&quot;font-style: italic ; color: #45c6d6&quot;&gt;switch&lt;/span&gt;&lt;span style=&quot;color: #bec0c2&quot;&gt; &lt;/span&gt;(&lt;span style=&quot;color: #d6bb9a&quot;&gt;_id&lt;/span&gt;)&lt;span style=&quot;color: #bec0c2&quot;&gt; &lt;/span&gt;{&lt;/pre&gt;&lt;pre style=&quot;margin-top: 0px ; margin-bottom: 0px&quot;&gt;&lt;span style=&quot;color: #bec0c2&quot;&gt;        &lt;/span&gt;&lt;span style=&quot;font-style: italic ; color: #45c6d6&quot;&gt;case&lt;/span&gt;&lt;span style=&quot;color: #bec0c2&quot;&gt; &lt;/span&gt;&lt;span style=&quot;color: #8a602c&quot;&gt;0&lt;/span&gt;:&lt;span style=&quot;color: #bec0c2&quot;&gt; &lt;/span&gt;&lt;span style=&quot;color: #d6bb9a&quot;&gt;_t&lt;/span&gt;&lt;span style=&quot;color: #d6bb9a&quot;&gt;-&amp;gt;&lt;/span&gt;valueChanged((&lt;span style=&quot;color: #d6bb9a&quot;&gt;*&lt;/span&gt;&lt;span style=&quot;font-style: italic ; color: #45c6d6&quot;&gt;reinterpret_cast&lt;/span&gt;&amp;lt;&lt;span style=&quot;color: #bec0c2&quot;&gt; &lt;/span&gt;&lt;span style=&quot;color: #d69aa7&quot;&gt;int&lt;/span&gt;(&lt;span style=&quot;color: #d6bb9a&quot;&gt;*&lt;/span&gt;)&amp;gt;(&lt;span style=&quot;color: #d6bb9a&quot;&gt;_a&lt;/span&gt;[&lt;span style=&quot;color: #8a602c&quot;&gt;1&lt;/span&gt;])));&lt;span style=&quot;color: #bec0c2&quot;&gt; &lt;/span&gt;&lt;span style=&quot;font-style: italic ; color: #45c6d6&quot;&gt;break&lt;/span&gt;;&lt;/pre&gt;&lt;pre style=&quot;margin-top: 0px ; margin-bottom: 0px&quot;&gt;&lt;span style=&quot;color: #bec0c2&quot;&gt;        &lt;/span&gt;&lt;span style=&quot;font-style: italic ; color: #45c6d6&quot;&gt;case&lt;/span&gt;&lt;span style=&quot;color: #bec0c2&quot;&gt; &lt;/span&gt;&lt;span style=&quot;color: #8a602c&quot;&gt;1&lt;/span&gt;:&lt;span style=&quot;color: #bec0c2&quot;&gt; &lt;/span&gt;&lt;span style=&quot;color: #d6bb9a&quot;&gt;_t&lt;/span&gt;&lt;span style=&quot;color: #d6bb9a&quot;&gt;-&amp;gt;&lt;/span&gt;setValue((&lt;span style=&quot;color: #d6bb9a&quot;&gt;*&lt;/span&gt;&lt;span style=&quot;font-style: italic ; color: #45c6d6&quot;&gt;reinterpret_cast&lt;/span&gt;&amp;lt;&lt;span style=&quot;color: #bec0c2&quot;&gt; &lt;/span&gt;&lt;span style=&quot;color: #d69aa7&quot;&gt;int&lt;/span&gt;(&lt;span style=&quot;color: #d6bb9a&quot;&gt;*&lt;/span&gt;)&amp;gt;(&lt;span style=&quot;color: #d6bb9a&quot;&gt;_a&lt;/span&gt;[&lt;span style=&quot;color: #8a602c&quot;&gt;1&lt;/span&gt;])));&lt;span style=&quot;color: #bec0c2&quot;&gt; &lt;/span&gt;&lt;span style=&quot;font-style: italic ; color: #45c6d6&quot;&gt;break&lt;/span&gt;;&lt;/pre&gt;&lt;pre style=&quot;margin-top: 0px ; margin-bottom: 0px&quot;&gt;&lt;span style=&quot;color: #bec0c2&quot;&gt;        &lt;/span&gt;&lt;span style=&quot;font-style: italic ; color: #45c6d6&quot;&gt;default&lt;/span&gt;:&lt;span style=&quot;color: #bec0c2&quot;&gt; &lt;/span&gt;;&lt;/pre&gt;&lt;pre style=&quot;margin-top: 0px ; margin-bottom: 0px&quot;&gt;&lt;span style=&quot;color: #bec0c2&quot;&gt;        &lt;/span&gt;}&lt;/pre&gt;&lt;pre style=&quot;margin-top: 0px ; margin-bottom: 0px&quot;&gt;&lt;span style=&quot;color: #bec0c2&quot;&gt;    &lt;/span&gt;}&lt;span style=&quot;color: #bec0c2&quot;&gt; &lt;/span&gt;&lt;span style=&quot;font-style: italic ; color: #45c6d6&quot;&gt;else&lt;/span&gt;&lt;span style=&quot;color: #bec0c2&quot;&gt; &lt;/span&gt;&lt;span style=&quot;font-style: italic ; color: #45c6d6&quot;&gt;if&lt;/span&gt;&lt;span style=&quot;color: #bec0c2&quot;&gt; &lt;/span&gt;(&lt;span style=&quot;color: #d6bb9a&quot;&gt;_c&lt;/span&gt;&lt;span style=&quot;color: #bec0c2&quot;&gt; &lt;/span&gt;&lt;span style=&quot;color: #d6bb9a&quot;&gt;==&lt;/span&gt;&lt;span style=&quot;color: #bec0c2&quot;&gt; &lt;/span&gt;&lt;span style=&quot;color: #ff8080&quot;&gt;QMetaObject&lt;/span&gt;::&lt;span style=&quot;font-style: italic ; color: #66a334&quot;&gt;IndexOfMethod&lt;/span&gt;)&lt;span style=&quot;color: #bec0c2&quot;&gt; &lt;/span&gt;{&lt;/pre&gt;&lt;pre style=&quot;margin-top: 0px ; margin-bottom: 0px&quot;&gt;&lt;span style=&quot;color: #bec0c2&quot;&gt;        &lt;/span&gt;&lt;span style=&quot;color: #d69aa7&quot;&gt;int&lt;/span&gt;&lt;span style=&quot;color: #bec0c2&quot;&gt; &lt;/span&gt;&lt;span style=&quot;color: #d6bb9a&quot;&gt;*&lt;/span&gt;&lt;span style=&quot;color: #d6bb9a&quot;&gt;result&lt;/span&gt;&lt;span style=&quot;color: #bec0c2&quot;&gt; &lt;/span&gt;&lt;span style=&quot;color: #d6bb9a&quot;&gt;=&lt;/span&gt;&lt;span style=&quot;color: #bec0c2&quot;&gt; &lt;/span&gt;&lt;span style=&quot;font-style: italic ; color: #45c6d6&quot;&gt;reinterpret_cast&lt;/span&gt;&amp;lt;&lt;span style=&quot;color: #d69aa7&quot;&gt;int&lt;/span&gt;&lt;span style=&quot;color: #bec0c2&quot;&gt; &lt;/span&gt;&lt;span style=&quot;color: #d6bb9a&quot;&gt;*&lt;/span&gt;&amp;gt;(&lt;span style=&quot;color: #d6bb9a&quot;&gt;_a&lt;/span&gt;[&lt;span style=&quot;color: #8a602c&quot;&gt;0&lt;/span&gt;]);&lt;/pre&gt;&lt;pre style=&quot;margin-top: 0px ; margin-bottom: 0px&quot;&gt;&lt;span style=&quot;color: #bec0c2&quot;&gt;        &lt;/span&gt;{&lt;/pre&gt;&lt;pre style=&quot;margin-top: 0px ; margin-bottom: 0px&quot;&gt;&lt;span style=&quot;color: #bec0c2&quot;&gt;            &lt;/span&gt;&lt;span style=&quot;font-style: italic ; color: #45c6d6&quot;&gt;using&lt;/span&gt;&lt;span style=&quot;color: #bec0c2&quot;&gt; &lt;/span&gt;&lt;span style=&quot;color: #ff8080&quot;&gt;_t&lt;/span&gt;&lt;span style=&quot;color: #bec0c2&quot;&gt; &lt;/span&gt;&lt;span style=&quot;color: #d6bb9a&quot;&gt;=&lt;/span&gt;&lt;span style=&quot;color: #bec0c2&quot;&gt; &lt;/span&gt;&lt;span style=&quot;color: #d69aa7&quot;&gt;void&lt;/span&gt;&lt;span style=&quot;color: #bec0c2&quot;&gt; &lt;/span&gt;(&lt;span style=&quot;color: #ff8080&quot;&gt;Counter&lt;/span&gt;::&lt;span style=&quot;color: #d6bb9a&quot;&gt;*&lt;/span&gt;)(&lt;span style=&quot;color: #d69aa7&quot;&gt;int&lt;/span&gt;&lt;span style=&quot;color: #bec0c2&quot;&gt; &lt;/span&gt;);&lt;/pre&gt;&lt;pre style=&quot;margin-top: 0px ; margin-bottom: 0px&quot;&gt;&lt;span style=&quot;color: #bec0c2&quot;&gt;            &lt;/span&gt;&lt;span style=&quot;font-style: italic ; color: #45c6d6&quot;&gt;if&lt;/span&gt;&lt;span style=&quot;color: #bec0c2&quot;&gt; &lt;/span&gt;(&lt;span style=&quot;color: #d6bb9a&quot;&gt;*&lt;/span&gt;&lt;span style=&quot;font-style: italic ; color: #45c6d6&quot;&gt;reinterpret_cast&lt;/span&gt;&amp;lt;&lt;span style=&quot;color: #ff8080&quot;&gt;_t&lt;/span&gt;&lt;span style=&quot;color: #bec0c2&quot;&gt; &lt;/span&gt;&lt;span style=&quot;color: #d6bb9a&quot;&gt;*&lt;/span&gt;&amp;gt;(&lt;span style=&quot;color: #d6bb9a&quot;&gt;_a&lt;/span&gt;[&lt;span style=&quot;color: #8a602c&quot;&gt;1&lt;/span&gt;])&lt;span style=&quot;color: #bec0c2&quot;&gt; &lt;/span&gt;&lt;span style=&quot;color: #d6bb9a&quot;&gt;==&lt;/span&gt;&lt;span style=&quot;color: #bec0c2&quot;&gt; &lt;/span&gt;&lt;span style=&quot;font-style: italic ; color: #45c6d6&quot;&gt;static_cast&lt;/span&gt;&amp;lt;&lt;span style=&quot;color: #ff8080&quot;&gt;_t&lt;/span&gt;&amp;gt;(&lt;span style=&quot;color: #d6bb9a&quot;&gt;&amp;amp;&lt;/span&gt;&lt;span style=&quot;color: #ff8080&quot;&gt;Counter&lt;/span&gt;::valueChanged))&lt;span style=&quot;color: #bec0c2&quot;&gt; &lt;/span&gt;{&lt;/pre&gt;&lt;pre style=&quot;margin-top: 0px ; margin-bottom: 0px&quot;&gt;&lt;span style=&quot;color: #bec0c2&quot;&gt;                &lt;/span&gt;&lt;span style=&quot;color: #d6bb9a&quot;&gt;*&lt;/span&gt;&lt;span style=&quot;color: #d6bb9a&quot;&gt;result&lt;/span&gt;&lt;span style=&quot;color: #bec0c2&quot;&gt; &lt;/span&gt;&lt;span style=&quot;color: #d6bb9a&quot;&gt;=&lt;/span&gt;&lt;span style=&quot;color: #bec0c2&quot;&gt; &lt;/span&gt;&lt;span style=&quot;color: #8a602c&quot;&gt;0&lt;/span&gt;;&lt;/pre&gt;&lt;pre style=&quot;margin-top: 0px ; margin-bottom: 0px&quot;&gt;&lt;span style=&quot;color: #bec0c2&quot;&gt;                &lt;/span&gt;&lt;span style=&quot;font-style: italic ; color: #45c6d6&quot;&gt;return&lt;/span&gt;;&lt;/pre&gt;&lt;pre style=&quot;margin-top: 0px ; margin-bottom: 0px&quot;&gt;&lt;span style=&quot;color: #bec0c2&quot;&gt;            &lt;/span&gt;}&lt;/pre&gt;&lt;pre style=&quot;margin-top: 0px ; margin-bottom: 0px&quot;&gt;&lt;span style=&quot;color: #bec0c2&quot;&gt;        &lt;/span&gt;}&lt;/pre&gt;&lt;pre style=&quot;margin-top: 0px ; margin-bottom: 0px&quot;&gt;&lt;span style=&quot;color: #bec0c2&quot;&gt;    &lt;/span&gt;}&lt;/pre&gt;&lt;pre style=&quot;margin-top: 0px ; margin-bottom: 0px&quot;&gt;}&lt;/pre&gt;" style="text;html=1;strokeColor=#666666;fillColor=#f5f5f5;align=left;verticalAlign=middle;whiteSpace=wrap;rounded=0;fontColor=#333333;" parent="SQ4FsBicLCbHLQmC9l4r-25" vertex="1">
          <mxGeometry x="30" y="300" width="700" height="350" as="geometry" />
        </mxCell>
        <mxCell id="SQ4FsBicLCbHLQmC9l4r-15" value="&lt;pre style=&quot;margin-top: 0px ; margin-bottom: 0px&quot;&gt;&lt;span style=&quot;font-style: italic ; color: #45c6d6&quot;&gt;const&lt;/span&gt;&lt;span style=&quot;color: #bec0c2&quot;&gt; &lt;/span&gt;&lt;span style=&quot;color: #ff8080&quot;&gt;QMetaObject&lt;/span&gt;&lt;span style=&quot;color: #bec0c2&quot;&gt; &lt;/span&gt;&lt;span style=&quot;color: #d6bb9a&quot;&gt;*&lt;/span&gt;&lt;span style=&quot;color: #ff8080&quot;&gt;Counter&lt;/span&gt;::&lt;span style=&quot;font-weight: 600 ; font-style: italic&quot;&gt;metaObject&lt;/span&gt;()&lt;span style=&quot;color: #bec0c2&quot;&gt; &lt;/span&gt;&lt;span style=&quot;font-style: italic ; color: #45c6d6&quot;&gt;const&lt;/span&gt;&lt;/pre&gt;&lt;pre style=&quot;margin-top: 0px ; margin-bottom: 0px&quot;&gt;{&lt;/pre&gt;&lt;pre style=&quot;margin-top: 0px ; margin-bottom: 0px&quot;&gt;&lt;span style=&quot;color: #bec0c2&quot;&gt;    &lt;/span&gt;&lt;span style=&quot;font-style: italic ; color: #45c6d6&quot;&gt;return&lt;/span&gt;&lt;span style=&quot;color: #bec0c2&quot;&gt; &lt;/span&gt;&lt;span style=&quot;color: #ff8080&quot;&gt;QObject&lt;/span&gt;::d_ptr&lt;span style=&quot;color: #d6bb9a&quot;&gt;-&amp;gt;&lt;/span&gt;metaObject&lt;span style=&quot;color: #bec0c2&quot;&gt; &lt;/span&gt;&lt;span style=&quot;color: #d6bb9a&quot;&gt;?&lt;/span&gt;&lt;span style=&quot;color: #bec0c2&quot;&gt; &lt;/span&gt;&lt;span style=&quot;color: #ff8080&quot;&gt;QObject&lt;/span&gt;::d_ptr&lt;span style=&quot;color: #d6bb9a&quot;&gt;-&amp;gt;&lt;/span&gt;dynamicMetaObject()&lt;span style=&quot;color: #bec0c2&quot;&gt; &lt;/span&gt;:&lt;span style=&quot;color: #bec0c2&quot;&gt; &lt;/span&gt;&lt;span style=&quot;color: #d6bb9a&quot;&gt;&amp;amp;&lt;/span&gt;staticMetaObject;&lt;/pre&gt;&lt;pre style=&quot;margin-top: 0px ; margin-bottom: 0px&quot;&gt;}&lt;/pre&gt;" style="text;html=1;strokeColor=#666666;fillColor=#f5f5f5;align=left;verticalAlign=middle;whiteSpace=wrap;rounded=0;fontColor=#333333;" parent="SQ4FsBicLCbHLQmC9l4r-25" vertex="1">
          <mxGeometry x="700" y="1026" width="670" height="100" as="geometry" />
        </mxCell>
        <mxCell id="SQ4FsBicLCbHLQmC9l4r-16" value="&lt;pre style=&quot;margin-top: 0px ; margin-bottom: 0px&quot;&gt;&lt;span style=&quot;color: #d69aa7&quot;&gt;void&lt;/span&gt;&lt;span style=&quot;color: #bec0c2&quot;&gt; &lt;/span&gt;&lt;span style=&quot;color: #d6bb9a&quot;&gt;*&lt;/span&gt;&lt;span style=&quot;color: #ff8080&quot;&gt;Counter&lt;/span&gt;::&lt;span style=&quot;font-weight: 600 ; font-style: italic&quot;&gt;qt_metacast&lt;/span&gt;(&lt;span style=&quot;font-style: italic ; color: #45c6d6&quot;&gt;const&lt;/span&gt;&lt;span style=&quot;color: #bec0c2&quot;&gt; &lt;/span&gt;&lt;span style=&quot;color: #d69aa7&quot;&gt;char&lt;/span&gt;&lt;span style=&quot;color: #bec0c2&quot;&gt; &lt;/span&gt;&lt;span style=&quot;color: #d6bb9a&quot;&gt;*&lt;/span&gt;&lt;span style=&quot;color: #d6bb9a&quot;&gt;_clname&lt;/span&gt;)&lt;/pre&gt;&lt;pre style=&quot;margin-top: 0px ; margin-bottom: 0px&quot;&gt;{&lt;/pre&gt;&lt;pre style=&quot;margin-top: 0px ; margin-bottom: 0px&quot;&gt;&lt;span style=&quot;color: #bec0c2&quot;&gt;    &lt;/span&gt;&lt;span style=&quot;font-style: italic ; color: #45c6d6&quot;&gt;if&lt;/span&gt;&lt;span style=&quot;color: #bec0c2&quot;&gt; &lt;/span&gt;(&lt;span style=&quot;color: #d6bb9a&quot;&gt;!&lt;/span&gt;&lt;span style=&quot;color: #d6bb9a&quot;&gt;_clname&lt;/span&gt;)&lt;span style=&quot;color: #bec0c2&quot;&gt; &lt;/span&gt;&lt;span style=&quot;font-style: italic ; color: #45c6d6&quot;&gt;return&lt;/span&gt;&lt;span style=&quot;color: #bec0c2&quot;&gt; &lt;/span&gt;&lt;span style=&quot;font-style: italic ; color: #45c6d6&quot;&gt;nullptr&lt;/span&gt;;&lt;/pre&gt;&lt;pre style=&quot;margin-top: 0px ; margin-bottom: 0px&quot;&gt;&lt;span style=&quot;color: #bec0c2&quot;&gt;    &lt;/span&gt;&lt;span style=&quot;font-style: italic ; color: #45c6d6&quot;&gt;if&lt;/span&gt;&lt;span style=&quot;color: #bec0c2&quot;&gt; &lt;/span&gt;(&lt;span style=&quot;color: #d6bb9a&quot;&gt;!&lt;/span&gt;strcmp(&lt;span style=&quot;color: #d6bb9a&quot;&gt;_clname&lt;/span&gt;,&lt;span style=&quot;color: #bec0c2&quot;&gt; &lt;/span&gt;qt_meta_stringdata_Counter&lt;span style=&quot;color: #d6bb9a&quot;&gt;.&lt;/span&gt;stringdata0))&lt;/pre&gt;&lt;pre style=&quot;margin-top: 0px ; margin-bottom: 0px&quot;&gt;&lt;span style=&quot;color: #bec0c2&quot;&gt;        &lt;/span&gt;&lt;span style=&quot;font-style: italic ; color: #45c6d6&quot;&gt;return&lt;/span&gt;&lt;span style=&quot;color: #bec0c2&quot;&gt; &lt;/span&gt;&lt;span style=&quot;font-style: italic ; color: #45c6d6&quot;&gt;static_cast&lt;/span&gt;&amp;lt;&lt;span style=&quot;color: #d69aa7&quot;&gt;void&lt;/span&gt;&lt;span style=&quot;color: #d6bb9a&quot;&gt;*&lt;/span&gt;&amp;gt;(&lt;span style=&quot;font-style: italic ; color: #45c6d6&quot;&gt;this&lt;/span&gt;);&lt;/pre&gt;&lt;pre style=&quot;margin-top: 0px ; margin-bottom: 0px&quot;&gt;&lt;span style=&quot;color: #bec0c2&quot;&gt;    &lt;/span&gt;&lt;span style=&quot;font-style: italic ; color: #45c6d6&quot;&gt;return&lt;/span&gt;&lt;span style=&quot;color: #bec0c2&quot;&gt; &lt;/span&gt;&lt;span style=&quot;color: #ff8080&quot;&gt;QObject&lt;/span&gt;::&lt;span style=&quot;font-style: italic&quot;&gt;qt_metacast&lt;/span&gt;(&lt;span style=&quot;color: #d6bb9a&quot;&gt;_clname&lt;/span&gt;);&lt;/pre&gt;&lt;pre style=&quot;margin-top: 0px ; margin-bottom: 0px&quot;&gt;}&lt;/pre&gt;" style="text;html=1;strokeColor=#666666;fillColor=#f5f5f5;align=left;verticalAlign=middle;whiteSpace=wrap;rounded=0;fontColor=#333333;" parent="SQ4FsBicLCbHLQmC9l4r-25" vertex="1">
          <mxGeometry x="25" y="710" width="580" height="130" as="geometry" />
        </mxCell>
        <mxCell id="SQ4FsBicLCbHLQmC9l4r-17" value="&lt;pre style=&quot;margin-top: 0px ; margin-bottom: 0px&quot;&gt;&lt;span style=&quot;color: #d69aa7&quot;&gt;int&lt;/span&gt;&lt;span style=&quot;color: #bec0c2&quot;&gt; &lt;/span&gt;&lt;span style=&quot;color: #ff8080&quot;&gt;Counter&lt;/span&gt;::&lt;span style=&quot;font-weight: 600 ; font-style: italic&quot;&gt;qt_metacall&lt;/span&gt;(&lt;span style=&quot;color: #ff8080&quot;&gt;QMetaObject&lt;/span&gt;::&lt;span style=&quot;color: #ff8080&quot;&gt;Call&lt;/span&gt;&lt;span style=&quot;color: #bec0c2&quot;&gt; &lt;/span&gt;&lt;span style=&quot;color: #d6bb9a&quot;&gt;_c&lt;/span&gt;,&lt;span style=&quot;color: #bec0c2&quot;&gt; &lt;/span&gt;&lt;span style=&quot;color: #d69aa7&quot;&gt;int&lt;/span&gt;&lt;span style=&quot;color: #bec0c2&quot;&gt; &lt;/span&gt;&lt;span style=&quot;color: #d6bb9a&quot;&gt;_id&lt;/span&gt;,&lt;span style=&quot;color: #bec0c2&quot;&gt; &lt;/span&gt;&lt;span style=&quot;color: #d69aa7&quot;&gt;void&lt;/span&gt;&lt;span style=&quot;color: #bec0c2&quot;&gt; &lt;/span&gt;&lt;span style=&quot;color: #d6bb9a&quot;&gt;**&lt;/span&gt;&lt;span style=&quot;color: #d6bb9a&quot;&gt;_a&lt;/span&gt;)&lt;/pre&gt;&lt;pre style=&quot;margin-top: 0px ; margin-bottom: 0px&quot;&gt;{&lt;/pre&gt;&lt;pre style=&quot;margin-top: 0px ; margin-bottom: 0px&quot;&gt;&lt;span style=&quot;color: #bec0c2&quot;&gt;    &lt;/span&gt;&lt;span style=&quot;color: #d6bb9a&quot;&gt;_id&lt;/span&gt;&lt;span style=&quot;color: #bec0c2&quot;&gt; &lt;/span&gt;&lt;span style=&quot;color: #d6bb9a&quot;&gt;=&lt;/span&gt;&lt;span style=&quot;color: #bec0c2&quot;&gt; &lt;/span&gt;&lt;span style=&quot;color: #ff8080&quot;&gt;QObject&lt;/span&gt;::&lt;span style=&quot;font-style: italic&quot;&gt;qt_metacall&lt;/span&gt;(&lt;span style=&quot;color: #d6bb9a&quot;&gt;_c&lt;/span&gt;,&lt;span style=&quot;color: #bec0c2&quot;&gt; &lt;/span&gt;&lt;span style=&quot;color: #d6bb9a&quot;&gt;_id&lt;/span&gt;,&lt;span style=&quot;color: #bec0c2&quot;&gt; &lt;/span&gt;&lt;span style=&quot;color: #d6bb9a&quot;&gt;_a&lt;/span&gt;);&lt;/pre&gt;&lt;pre style=&quot;margin-top: 0px ; margin-bottom: 0px&quot;&gt;&lt;span style=&quot;color: #bec0c2&quot;&gt;    &lt;/span&gt;&lt;span style=&quot;font-style: italic ; color: #45c6d6&quot;&gt;if&lt;/span&gt;&lt;span style=&quot;color: #bec0c2&quot;&gt; &lt;/span&gt;(&lt;span style=&quot;color: #d6bb9a&quot;&gt;_id&lt;/span&gt;&lt;span style=&quot;color: #bec0c2&quot;&gt; &lt;/span&gt;&amp;lt;&lt;span style=&quot;color: #bec0c2&quot;&gt; &lt;/span&gt;&lt;span style=&quot;color: #8a602c&quot;&gt;0&lt;/span&gt;)&lt;/pre&gt;&lt;pre style=&quot;margin-top: 0px ; margin-bottom: 0px&quot;&gt;&lt;span style=&quot;color: #bec0c2&quot;&gt;        &lt;/span&gt;&lt;span style=&quot;font-style: italic ; color: #45c6d6&quot;&gt;return&lt;/span&gt;&lt;span style=&quot;color: #bec0c2&quot;&gt; &lt;/span&gt;&lt;span style=&quot;color: #d6bb9a&quot;&gt;_id&lt;/span&gt;;&lt;/pre&gt;&lt;pre style=&quot;margin-top: 0px ; margin-bottom: 0px&quot;&gt;&lt;span style=&quot;color: #bec0c2&quot;&gt;    &lt;/span&gt;&lt;span style=&quot;font-style: italic ; color: #45c6d6&quot;&gt;if&lt;/span&gt;&lt;span style=&quot;color: #bec0c2&quot;&gt; &lt;/span&gt;(&lt;span style=&quot;color: #d6bb9a&quot;&gt;_c&lt;/span&gt;&lt;span style=&quot;color: #bec0c2&quot;&gt; &lt;/span&gt;&lt;span style=&quot;color: #d6bb9a&quot;&gt;==&lt;/span&gt;&lt;span style=&quot;color: #bec0c2&quot;&gt; &lt;/span&gt;&lt;span style=&quot;color: #ff8080&quot;&gt;QMetaObject&lt;/span&gt;::&lt;span style=&quot;font-style: italic ; color: #66a334&quot;&gt;InvokeMetaMethod&lt;/span&gt;)&lt;span style=&quot;color: #bec0c2&quot;&gt; &lt;/span&gt;{&lt;/pre&gt;&lt;pre style=&quot;margin-top: 0px ; margin-bottom: 0px&quot;&gt;&lt;span style=&quot;color: #bec0c2&quot;&gt;        &lt;/span&gt;&lt;span style=&quot;font-style: italic ; color: #45c6d6&quot;&gt;if&lt;/span&gt;&lt;span style=&quot;color: #bec0c2&quot;&gt; &lt;/span&gt;(&lt;span style=&quot;color: #d6bb9a&quot;&gt;_id&lt;/span&gt;&lt;span style=&quot;color: #bec0c2&quot;&gt; &lt;/span&gt;&amp;lt;&lt;span style=&quot;color: #bec0c2&quot;&gt; &lt;/span&gt;&lt;span style=&quot;color: #8a602c&quot;&gt;2&lt;/span&gt;)&lt;/pre&gt;&lt;pre style=&quot;margin-top: 0px ; margin-bottom: 0px&quot;&gt;&lt;span style=&quot;color: #bec0c2&quot;&gt;            &lt;/span&gt;qt_static_metacall(&lt;span style=&quot;font-style: italic ; color: #45c6d6&quot;&gt;this&lt;/span&gt;,&lt;span style=&quot;color: #bec0c2&quot;&gt; &lt;/span&gt;&lt;span style=&quot;color: #d6bb9a&quot;&gt;_c&lt;/span&gt;,&lt;span style=&quot;color: #bec0c2&quot;&gt; &lt;/span&gt;&lt;span style=&quot;color: #d6bb9a&quot;&gt;_id&lt;/span&gt;,&lt;span style=&quot;color: #bec0c2&quot;&gt; &lt;/span&gt;&lt;span style=&quot;color: #d6bb9a&quot;&gt;_a&lt;/span&gt;);&lt;/pre&gt;&lt;pre style=&quot;margin-top: 0px ; margin-bottom: 0px&quot;&gt;&lt;span style=&quot;color: #bec0c2&quot;&gt;        &lt;/span&gt;&lt;span style=&quot;color: #d6bb9a&quot;&gt;_id&lt;/span&gt;&lt;span style=&quot;color: #bec0c2&quot;&gt; &lt;/span&gt;&lt;span style=&quot;color: #d6bb9a&quot;&gt;-=&lt;/span&gt;&lt;span style=&quot;color: #bec0c2&quot;&gt; &lt;/span&gt;&lt;span style=&quot;color: #8a602c&quot;&gt;2&lt;/span&gt;;&lt;/pre&gt;&lt;pre style=&quot;margin-top: 0px ; margin-bottom: 0px&quot;&gt;&lt;span style=&quot;color: #bec0c2&quot;&gt;    &lt;/span&gt;}&lt;span style=&quot;color: #bec0c2&quot;&gt; &lt;/span&gt;&lt;span style=&quot;font-style: italic ; color: #45c6d6&quot;&gt;else&lt;/span&gt;&lt;span style=&quot;color: #bec0c2&quot;&gt; &lt;/span&gt;&lt;span style=&quot;font-style: italic ; color: #45c6d6&quot;&gt;if&lt;/span&gt;&lt;span style=&quot;color: #bec0c2&quot;&gt; &lt;/span&gt;(&lt;span style=&quot;color: #d6bb9a&quot;&gt;_c&lt;/span&gt;&lt;span style=&quot;color: #bec0c2&quot;&gt; &lt;/span&gt;&lt;span style=&quot;color: #d6bb9a&quot;&gt;==&lt;/span&gt;&lt;span style=&quot;color: #bec0c2&quot;&gt; &lt;/span&gt;&lt;span style=&quot;color: #ff8080&quot;&gt;QMetaObject&lt;/span&gt;::&lt;span style=&quot;font-style: italic ; color: #66a334&quot;&gt;RegisterMethodArgumentMetaType&lt;/span&gt;)&lt;span style=&quot;color: #bec0c2&quot;&gt; &lt;/span&gt;{&lt;/pre&gt;&lt;pre style=&quot;margin-top: 0px ; margin-bottom: 0px&quot;&gt;&lt;span style=&quot;color: #bec0c2&quot;&gt;        &lt;/span&gt;&lt;span style=&quot;font-style: italic ; color: #45c6d6&quot;&gt;if&lt;/span&gt;&lt;span style=&quot;color: #bec0c2&quot;&gt; &lt;/span&gt;(&lt;span style=&quot;color: #d6bb9a&quot;&gt;_id&lt;/span&gt;&lt;span style=&quot;color: #bec0c2&quot;&gt; &lt;/span&gt;&amp;lt;&lt;span style=&quot;color: #bec0c2&quot;&gt; &lt;/span&gt;&lt;span style=&quot;color: #8a602c&quot;&gt;2&lt;/span&gt;)&lt;/pre&gt;&lt;pre style=&quot;margin-top: 0px ; margin-bottom: 0px&quot;&gt;&lt;span style=&quot;color: #bec0c2&quot;&gt;            &lt;/span&gt;&lt;span style=&quot;color: #d6bb9a&quot;&gt;*&lt;/span&gt;&lt;span style=&quot;font-style: italic ; color: #45c6d6&quot;&gt;reinterpret_cast&lt;/span&gt;&amp;lt;&lt;span style=&quot;color: #d69aa7&quot;&gt;int&lt;/span&gt;&lt;span style=&quot;color: #d6bb9a&quot;&gt;*&lt;/span&gt;&amp;gt;(&lt;span style=&quot;color: #d6bb9a&quot;&gt;_a&lt;/span&gt;[&lt;span style=&quot;color: #8a602c&quot;&gt;0&lt;/span&gt;])&lt;span style=&quot;color: #bec0c2&quot;&gt; &lt;/span&gt;&lt;span style=&quot;color: #d6bb9a&quot;&gt;=&lt;/span&gt;&lt;span style=&quot;color: #bec0c2&quot;&gt; &lt;/span&gt;&lt;span style=&quot;color: #d6bb9a&quot;&gt;-&lt;/span&gt;&lt;span style=&quot;color: #8a602c&quot;&gt;1&lt;/span&gt;;&lt;/pre&gt;&lt;pre style=&quot;margin-top: 0px ; margin-bottom: 0px&quot;&gt;&lt;span style=&quot;color: #bec0c2&quot;&gt;        &lt;/span&gt;&lt;span style=&quot;color: #d6bb9a&quot;&gt;_id&lt;/span&gt;&lt;span style=&quot;color: #bec0c2&quot;&gt; &lt;/span&gt;&lt;span style=&quot;color: #d6bb9a&quot;&gt;-=&lt;/span&gt;&lt;span style=&quot;color: #bec0c2&quot;&gt; &lt;/span&gt;&lt;span style=&quot;color: #8a602c&quot;&gt;2&lt;/span&gt;;&lt;/pre&gt;&lt;pre style=&quot;margin-top: 0px ; margin-bottom: 0px&quot;&gt;&lt;span style=&quot;color: #bec0c2&quot;&gt;    &lt;/span&gt;}&lt;/pre&gt;&lt;pre style=&quot;margin-top: 0px ; margin-bottom: 0px&quot;&gt;&lt;span style=&quot;color: #bec0c2&quot;&gt;    &lt;/span&gt;&lt;span style=&quot;font-style: italic ; color: #45c6d6&quot;&gt;return&lt;/span&gt;&lt;span style=&quot;color: #bec0c2&quot;&gt; &lt;/span&gt;&lt;span style=&quot;color: #d6bb9a&quot;&gt;_id&lt;/span&gt;;&lt;/pre&gt;&lt;pre style=&quot;margin-top: 0px ; margin-bottom: 0px&quot;&gt;}&lt;/pre&gt;" style="text;html=1;strokeColor=#666666;fillColor=#f5f5f5;align=left;verticalAlign=middle;whiteSpace=wrap;rounded=0;fontColor=#333333;" parent="SQ4FsBicLCbHLQmC9l4r-25" vertex="1">
          <mxGeometry x="30" y="860" width="500" height="266" as="geometry" />
        </mxCell>
        <mxCell id="SQ4FsBicLCbHLQmC9l4r-18" value="&lt;pre style=&quot;margin-top: 0px ; margin-bottom: 0px&quot;&gt;&lt;span style=&quot;color: #d69aa7&quot;&gt;void&lt;/span&gt;&lt;span style=&quot;color: #bec0c2&quot;&gt; &lt;/span&gt;&lt;span style=&quot;color: #ff8080&quot;&gt;Counter&lt;/span&gt;::&lt;span style=&quot;font-weight: 600&quot;&gt;valueChanged&lt;/span&gt;(&lt;span style=&quot;color: #d69aa7&quot;&gt;int&lt;/span&gt;&lt;span style=&quot;color: #bec0c2&quot;&gt; &lt;/span&gt;&lt;span style=&quot;color: #d6bb9a&quot;&gt;_t1&lt;/span&gt;)&lt;/pre&gt;&lt;pre style=&quot;margin-top: 0px ; margin-bottom: 0px&quot;&gt;{&lt;/pre&gt;&lt;pre style=&quot;margin-top: 0px ; margin-bottom: 0px&quot;&gt;&lt;span style=&quot;color: #bec0c2&quot;&gt;    &lt;/span&gt;&lt;span style=&quot;color: #d69aa7&quot;&gt;void&lt;/span&gt;&lt;span style=&quot;color: #bec0c2&quot;&gt; &lt;/span&gt;&lt;span style=&quot;color: #d6bb9a&quot;&gt;*&lt;/span&gt;&lt;span style=&quot;color: #d6bb9a&quot;&gt;_a&lt;/span&gt;[]&lt;span style=&quot;color: #bec0c2&quot;&gt; &lt;/span&gt;&lt;span style=&quot;color: #d6bb9a&quot;&gt;=&lt;/span&gt;&lt;span style=&quot;color: #bec0c2&quot;&gt; &lt;/span&gt;{&lt;span style=&quot;color: #bec0c2&quot;&gt; &lt;/span&gt;&lt;span style=&quot;font-style: italic ; color: #45c6d6&quot;&gt;nullptr&lt;/span&gt;,&lt;span style=&quot;color: #bec0c2&quot;&gt; &lt;/span&gt;&lt;span style=&quot;font-style: italic ; color: #45c6d6&quot;&gt;const_cast&lt;/span&gt;&amp;lt;&lt;span style=&quot;color: #d69aa7&quot;&gt;void&lt;/span&gt;&lt;span style=&quot;color: #d6bb9a&quot;&gt;*&lt;/span&gt;&amp;gt;(&lt;span style=&quot;font-style: italic ; color: #45c6d6&quot;&gt;reinterpret_cast&lt;/span&gt;&amp;lt;&lt;span style=&quot;font-style: italic ; color: #45c6d6&quot;&gt;const&lt;/span&gt;&lt;span style=&quot;color: #bec0c2&quot;&gt; &lt;/span&gt;&lt;span style=&quot;color: #d69aa7&quot;&gt;void&lt;/span&gt;&lt;span style=&quot;color: #d6bb9a&quot;&gt;*&lt;/span&gt;&amp;gt;(&lt;span style=&quot;color: #ff8080&quot;&gt;std&lt;/span&gt;::addressof(&lt;span style=&quot;color: #d6bb9a&quot;&gt;_t1&lt;/span&gt;)))&lt;span style=&quot;color: #bec0c2&quot;&gt; &lt;/span&gt;};&lt;/pre&gt;&lt;pre style=&quot;margin-top: 0px ; margin-bottom: 0px&quot;&gt;&lt;span style=&quot;color: #bec0c2&quot;&gt;    &lt;/span&gt;&lt;span style=&quot;color: #ff8080&quot;&gt;QMetaObject&lt;/span&gt;::activate(&lt;span style=&quot;font-style: italic ; color: #45c6d6&quot;&gt;this&lt;/span&gt;,&lt;span style=&quot;color: #bec0c2&quot;&gt; &lt;/span&gt;&lt;span style=&quot;color: #d6bb9a&quot;&gt;&amp;amp;&lt;/span&gt;staticMetaObject,&lt;span style=&quot;color: #bec0c2&quot;&gt; &lt;/span&gt;&lt;span style=&quot;color: #8a602c&quot;&gt;0&lt;/span&gt;,&lt;span style=&quot;color: #bec0c2&quot;&gt; &lt;/span&gt;&lt;span style=&quot;color: #d6bb9a&quot;&gt;_a&lt;/span&gt;);&lt;/pre&gt;&lt;pre style=&quot;margin-top: 0px ; margin-bottom: 0px&quot;&gt;}&lt;/pre&gt;" style="text;html=1;strokeColor=#666666;fillColor=#f5f5f5;align=left;verticalAlign=middle;whiteSpace=wrap;rounded=0;fontColor=#333333;" parent="SQ4FsBicLCbHLQmC9l4r-25" vertex="1">
          <mxGeometry x="700" y="893" width="680" height="100" as="geometry" />
        </mxCell>
        <mxCell id="SQ4FsBicLCbHLQmC9l4r-22" value="&lt;h1&gt;moc_counter.cpp&lt;/h1&gt;" style="text;html=1;strokeColor=none;fillColor=none;spacing=5;spacingTop=-20;whiteSpace=wrap;overflow=hidden;rounded=0;" parent="SQ4FsBicLCbHLQmC9l4r-25" vertex="1">
          <mxGeometry x="605" y="20" width="220" height="40" as="geometry" />
        </mxCell>
        <mxCell id="SQ4FsBicLCbHLQmC9l4r-30" value="" style="group" parent="1" vertex="1" connectable="0">
          <mxGeometry x="30" y="-1525" width="330" height="370" as="geometry" />
        </mxCell>
        <mxCell id="SQ4FsBicLCbHLQmC9l4r-28" value="" style="rounded=0;whiteSpace=wrap;html=1;fillColor=#ffe6cc;strokeColor=#d79b00;" parent="SQ4FsBicLCbHLQmC9l4r-30" vertex="1">
          <mxGeometry width="330" height="370" as="geometry" />
        </mxCell>
        <mxCell id="SQ4FsBicLCbHLQmC9l4r-4" value="&lt;pre style=&quot;margin-top: 0px ; margin-bottom: 0px&quot;&gt;&lt;span style=&quot;font-style: italic ; color: #45c6d6&quot;&gt;class&lt;/span&gt;&lt;span style=&quot;color: #bec0c2&quot;&gt; &lt;/span&gt;&lt;span style=&quot;color: #ff8080&quot;&gt;Counter&lt;/span&gt;&lt;span style=&quot;color: #bec0c2&quot;&gt; &lt;/span&gt;:&lt;span style=&quot;color: #bec0c2&quot;&gt; &lt;/span&gt;&lt;span style=&quot;font-style: italic ; color: #45c6d6&quot;&gt;public&lt;/span&gt;&lt;span style=&quot;color: #bec0c2&quot;&gt; &lt;/span&gt;&lt;span style=&quot;color: #ff8080&quot;&gt;QObject&lt;/span&gt;&lt;/pre&gt;&lt;pre style=&quot;margin-top: 0px ; margin-bottom: 0px&quot;&gt;{&lt;/pre&gt;&lt;pre style=&quot;margin-top: 0px ; margin-bottom: 0px&quot;&gt;&lt;span style=&quot;color: #bec0c2&quot;&gt;   &lt;/span&gt;&lt;span style=&quot;color: #ff6aad&quot;&gt;Q_OBJECT&lt;/span&gt;&lt;/pre&gt;&lt;pre style=&quot;margin-top: 0px ; margin-bottom: 0px&quot;&gt;&lt;span style=&quot;font-style: italic ; color: #45c6d6&quot;&gt;public&lt;/span&gt;:&lt;/pre&gt;&lt;pre style=&quot;margin-top: 0px ; margin-bottom: 0px&quot;&gt;&lt;span style=&quot;color: #ff8080&quot;&gt;    Counter&lt;/span&gt;()&lt;font color=&quot;#bec0c2&quot;&gt;；&lt;/font&gt;&lt;/pre&gt;&lt;pre style=&quot;margin-top: 0px ; margin-bottom: 0px&quot;&gt;&lt;br&gt;&lt;/pre&gt;&lt;pre style=&quot;margin-top: 0px ; margin-bottom: 0px&quot;&gt;&lt;span style=&quot;font-family: &amp;quot;helvetica&amp;quot; ; white-space: normal ; color: rgb(214 , 154 , 167)&quot;&gt;&lt;span style=&quot;white-space: pre&quot;&gt; &lt;/span&gt;int&lt;/span&gt;&lt;span style=&quot;font-family: &amp;quot;helvetica&amp;quot; ; white-space: normal ; color: rgb(190 , 192 , 194)&quot;&gt; &lt;/span&gt;&lt;span style=&quot;font-family: &amp;quot;helvetica&amp;quot; ; white-space: normal ; font-weight: 600&quot;&gt;value&lt;/span&gt;&lt;span style=&quot;font-family: &amp;quot;helvetica&amp;quot; ; white-space: normal&quot;&gt;()&lt;/span&gt;&lt;span style=&quot;font-family: &amp;quot;helvetica&amp;quot; ; white-space: normal ; color: rgb(190 , 192 , 194)&quot;&gt; &lt;/span&gt;&lt;span style=&quot;font-family: &amp;quot;helvetica&amp;quot; ; white-space: normal ; font-style: italic ; color: rgb(69 , 198 , 214)&quot;&gt;const&lt;/span&gt;&lt;span style=&quot;font-family: &amp;quot;helvetica&amp;quot; ; white-space: normal ; color: rgb(190 , 192 , 194)&quot;&gt;&amp;nbsp;；&lt;/span&gt;&lt;br&gt;&lt;/pre&gt;&lt;br&gt;&lt;pre style=&quot;margin-top: 0px ; margin-bottom: 0px&quot;&gt;&lt;span style=&quot;font-family: &amp;quot;helvetica&amp;quot; ; white-space: normal ; font-style: italic ; color: rgb(69 , 198 , 214)&quot;&gt;public&lt;/span&gt;&lt;span style=&quot;font-family: &amp;quot;helvetica&amp;quot; ; white-space: normal ; color: rgb(190 , 192 , 194)&quot;&gt; &lt;/span&gt;&lt;span style=&quot;font-family: &amp;quot;helvetica&amp;quot; ; white-space: normal ; font-style: italic ; color: rgb(69 , 198 , 214)&quot;&gt;slots&lt;/span&gt;&lt;span style=&quot;font-family: &amp;quot;helvetica&amp;quot; ; white-space: normal&quot;&gt;:&lt;/span&gt;&lt;br&gt;&lt;/pre&gt;&lt;pre style=&quot;margin-top: 0px ; margin-bottom: 0px&quot;&gt;&lt;span style=&quot;color: #d69aa7&quot;&gt;    void&lt;/span&gt;&lt;span style=&quot;color: #bec0c2&quot;&gt; &lt;/span&gt;&lt;span style=&quot;font-weight: 600&quot;&gt;setValue&lt;/span&gt;(&lt;span style=&quot;color: #d69aa7&quot;&gt;int&lt;/span&gt;&lt;span style=&quot;color: #bec0c2&quot;&gt; &lt;/span&gt;value);&lt;/pre&gt;&lt;pre style=&quot;margin-top: 0px ; margin-bottom: 0px&quot;&gt;&lt;span style=&quot;font-style: italic ; color: #45c6d6&quot;&gt;&lt;br&gt;&lt;/span&gt;&lt;/pre&gt;&lt;pre style=&quot;margin-top: 0px ; margin-bottom: 0px&quot;&gt;&lt;span style=&quot;font-style: italic ; color: #45c6d6&quot;&gt;signals&lt;/span&gt;:&lt;/pre&gt;&lt;pre style=&quot;margin-top: 0px ; margin-bottom: 0px&quot;&gt;&lt;span style=&quot;color: #d69aa7&quot;&gt;    void&lt;/span&gt;&lt;span style=&quot;color: #bec0c2&quot;&gt; &lt;/span&gt;&lt;span style=&quot;font-weight: 600&quot;&gt;valueChanged&lt;/span&gt;(&lt;span style=&quot;color: #d69aa7&quot;&gt;int&lt;/span&gt;&lt;span style=&quot;color: #bec0c2&quot;&gt; &lt;/span&gt;newValue);&lt;/pre&gt;&lt;pre style=&quot;margin-top: 0px ; margin-bottom: 0px&quot;&gt;&lt;span style=&quot;font-family: &amp;quot;helvetica&amp;quot; ; white-space: normal ; font-style: italic ; color: rgb(69 , 198 , 214)&quot;&gt;&lt;br&gt;&lt;/span&gt;&lt;/pre&gt;&lt;pre style=&quot;margin-top: 0px ; margin-bottom: 0px&quot;&gt;&lt;span style=&quot;font-family: &amp;quot;helvetica&amp;quot; ; white-space: normal ; font-style: italic ; color: rgb(69 , 198 , 214)&quot;&gt;private&lt;/span&gt;&lt;span style=&quot;font-family: &amp;quot;helvetica&amp;quot; ; white-space: normal&quot;&gt;:&lt;/span&gt;&lt;br&gt;&lt;/pre&gt;&lt;pre style=&quot;margin-top: 0px ; margin-bottom: 0px&quot;&gt;&lt;span style=&quot;color: #bec0c2&quot;&gt;    &lt;/span&gt;&lt;span style=&quot;color: #d69aa7&quot;&gt;int&lt;/span&gt;&lt;span style=&quot;color: #bec0c2&quot;&gt; &lt;/span&gt;m_value;&lt;/pre&gt;&lt;pre style=&quot;margin-top: 0px ; margin-bottom: 0px&quot;&gt;};&lt;/pre&gt;" style="text;html=1;align=left;verticalAlign=middle;whiteSpace=wrap;rounded=0;fillColor=#f5f5f5;fontColor=#333333;strokeColor=#666666;" parent="SQ4FsBicLCbHLQmC9l4r-30" vertex="1">
          <mxGeometry x="20" y="60" width="270" height="260" as="geometry" />
        </mxCell>
        <mxCell id="SQ4FsBicLCbHLQmC9l4r-29" value="&lt;h1&gt;Counter.h&lt;/h1&gt;" style="text;html=1;strokeColor=none;fillColor=none;spacing=5;spacingTop=-20;whiteSpace=wrap;overflow=hidden;rounded=0;" parent="SQ4FsBicLCbHLQmC9l4r-30" vertex="1">
          <mxGeometry x="60" y="10" width="190" height="40" as="geometry" />
        </mxCell>
        <mxCell id="SQ4FsBicLCbHLQmC9l4r-31" value="" style="group" parent="1" vertex="1" connectable="0">
          <mxGeometry x="570" y="-1620" width="610" height="560" as="geometry" />
        </mxCell>
        <mxCell id="SQ4FsBicLCbHLQmC9l4r-26" value="" style="rounded=0;whiteSpace=wrap;html=1;fillColor=#ffe6cc;strokeColor=#d79b00;" parent="SQ4FsBicLCbHLQmC9l4r-31" vertex="1">
          <mxGeometry width="610" height="560" as="geometry" />
        </mxCell>
        <mxCell id="SQ4FsBicLCbHLQmC9l4r-7" value="&lt;pre style=&quot;color: rgb(51 , 51 , 51) ; margin-top: 0px ; margin-bottom: 0px&quot;&gt;&lt;pre style=&quot;margin-top: 0px ; margin-bottom: 0px&quot;&gt;&lt;span style=&quot;font-style: italic ; color: #45c6d6&quot;&gt;class&lt;/span&gt;&lt;span style=&quot;color: #bec0c2&quot;&gt; &lt;/span&gt;&lt;span style=&quot;color: #ff8080&quot;&gt;Counter&lt;/span&gt;&lt;span style=&quot;color: #bec0c2&quot;&gt; &lt;/span&gt;:&lt;span style=&quot;color: #bec0c2&quot;&gt; &lt;/span&gt;&lt;span style=&quot;font-style: italic ; color: #45c6d6&quot;&gt;public&lt;/span&gt;&lt;span style=&quot;color: #bec0c2&quot;&gt; &lt;/span&gt;&lt;span style=&quot;color: #ff8080&quot;&gt;QObject&lt;/span&gt;&lt;/pre&gt;&lt;pre style=&quot;margin-top: 0px ; margin-bottom: 0px&quot;&gt;{&lt;/pre&gt;&lt;pre style=&quot;margin-top: 0px ; margin-bottom: 0px&quot;&gt;&lt;span style=&quot;font-style: italic ; color: #45c6d6&quot;&gt;public&lt;/span&gt;:&lt;/pre&gt;&lt;pre style=&quot;margin-top: 0px ; margin-bottom: 0px&quot;&gt;&lt;span style=&quot;color: #bec0c2&quot;&gt;    &lt;/span&gt;&lt;span style=&quot;font-style: italic ; color: #45c6d6&quot;&gt;static&lt;/span&gt;&lt;span style=&quot;color: #bec0c2&quot;&gt; &lt;/span&gt;&lt;span style=&quot;font-style: italic ; color: #45c6d6&quot;&gt;const&lt;/span&gt;&lt;span style=&quot;color: #bec0c2&quot;&gt; &lt;/span&gt;&lt;span style=&quot;color: #ff8080&quot;&gt;QMetaObject&lt;/span&gt;&lt;span style=&quot;color: #bec0c2&quot;&gt; &lt;/span&gt;staticMetaObject;&lt;/pre&gt;&lt;pre style=&quot;margin-top: 0px ; margin-bottom: 0px&quot;&gt;&lt;br&gt;&lt;/pre&gt;&lt;pre style=&quot;margin-top: 0px ; margin-bottom: 0px&quot;&gt;&lt;span style=&quot;color: #bec0c2&quot;&gt;    &lt;/span&gt;&lt;span style=&quot;font-style: italic ; color: #45c6d6&quot;&gt;virtual&lt;/span&gt;&lt;span style=&quot;color: #bec0c2&quot;&gt; &lt;/span&gt;&lt;span style=&quot;font-style: italic ; color: #45c6d6&quot;&gt;const&lt;/span&gt;&lt;span style=&quot;color: #bec0c2&quot;&gt; &lt;/span&gt;&lt;span style=&quot;color: #ff8080&quot;&gt;QMetaObject&lt;/span&gt;&lt;span style=&quot;color: #bec0c2&quot;&gt; &lt;/span&gt;&lt;span style=&quot;color: #d6bb9a&quot;&gt;*&lt;/span&gt;&lt;span style=&quot;font-weight: 600 ; font-style: italic&quot;&gt;metaObject&lt;/span&gt;()&lt;span style=&quot;color: #bec0c2&quot;&gt; &lt;/span&gt;&lt;span style=&quot;font-style: italic ; color: #45c6d6&quot;&gt;const&lt;/span&gt;;&lt;/pre&gt;&lt;br&gt;&lt;pre style=&quot;margin-top: 0px ; margin-bottom: 0px&quot;&gt;&lt;span style=&quot;color: #bec0c2&quot;&gt;    &lt;/span&gt;&lt;span style=&quot;font-style: italic ; color: #45c6d6&quot;&gt;virtual&lt;/span&gt;&lt;span style=&quot;color: #bec0c2&quot;&gt; &lt;/span&gt;&lt;span style=&quot;color: #d69aa7&quot;&gt;void&lt;/span&gt;&lt;span style=&quot;color: #bec0c2&quot;&gt; &lt;/span&gt;&lt;span style=&quot;color: #d6bb9a&quot;&gt;*&lt;/span&gt;&lt;span style=&quot;font-weight: 600 ; font-style: italic&quot;&gt;qt_metacast&lt;/span&gt;(&lt;span style=&quot;font-style: italic ; color: #45c6d6&quot;&gt;const&lt;/span&gt;&lt;span style=&quot;color: #bec0c2&quot;&gt; &lt;/span&gt;&lt;span style=&quot;color: #d69aa7&quot;&gt;char&lt;/span&gt;&lt;span style=&quot;color: #bec0c2&quot;&gt; &lt;/span&gt;&lt;span style=&quot;color: #d6bb9a&quot;&gt;*&lt;/span&gt;);&lt;/pre&gt;&lt;br&gt;&lt;pre style=&quot;margin-top: 0px ; margin-bottom: 0px&quot;&gt;&lt;span style=&quot;color: #bec0c2&quot;&gt;    &lt;/span&gt;&lt;span style=&quot;font-style: italic ; color: #45c6d6&quot;&gt;virtual&lt;/span&gt;&lt;span style=&quot;color: #bec0c2&quot;&gt; &lt;/span&gt;&lt;span style=&quot;color: #d69aa7&quot;&gt;int&lt;/span&gt;&lt;span style=&quot;color: #bec0c2&quot;&gt; &lt;/span&gt;&lt;span style=&quot;font-weight: 600 ; font-style: italic&quot;&gt;qt_metacall&lt;/span&gt;(&lt;span style=&quot;color: #ff8080&quot;&gt;QMetaObject&lt;/span&gt;::&lt;span style=&quot;color: #ff8080&quot;&gt;Call&lt;/span&gt;,&lt;span style=&quot;color: #bec0c2&quot;&gt; &lt;/span&gt;&lt;span style=&quot;color: #d69aa7&quot;&gt;int&lt;/span&gt;,&lt;span style=&quot;color: #bec0c2&quot;&gt; &lt;/span&gt;&lt;span style=&quot;color: #d69aa7&quot;&gt;void&lt;/span&gt;&lt;span style=&quot;color: #bec0c2&quot;&gt; &lt;/span&gt;&lt;span style=&quot;color: #d6bb9a&quot;&gt;**&lt;/span&gt;);&lt;/pre&gt;&lt;br&gt;&lt;pre style=&quot;margin-top: 0px ; margin-bottom: 0px&quot;&gt;&lt;span style=&quot;color: #bec0c2&quot;&gt;    &lt;/span&gt;&lt;span style=&quot;color: #ff6aad&quot;&gt;QT_TR_FUNCTIONS&lt;/span&gt;&lt;/pre&gt;&lt;br&gt;&lt;pre style=&quot;margin-top: 0px ; margin-bottom: 0px&quot;&gt;&lt;span style=&quot;font-family: &amp;#34;helvetica&amp;#34; ; white-space: normal ; font-style: italic ; color: rgb(69 , 198 , 214)&quot;&gt;private&lt;/span&gt;&lt;span style=&quot;font-family: &amp;#34;helvetica&amp;#34; ; white-space: normal&quot;&gt;:&lt;/span&gt;&lt;br&gt;&lt;/pre&gt;&lt;pre style=&quot;margin-top: 0px ; margin-bottom: 0px&quot;&gt;&lt;span style=&quot;font-style: italic ; color: #45c6d6&quot;&gt;    static&lt;/span&gt;&lt;span style=&quot;color: #bec0c2&quot;&gt; &lt;/span&gt;&lt;span style=&quot;color: #d69aa7&quot;&gt;void&lt;/span&gt;&lt;span style=&quot;color: #bec0c2&quot;&gt; &lt;/span&gt;&lt;span style=&quot;font-weight: 600&quot;&gt;qt_static_metacall&lt;/span&gt;(&lt;span style=&quot;color: #ff8080&quot;&gt;QObject&lt;/span&gt;&lt;span style=&quot;color: #bec0c2&quot;&gt; &lt;/span&gt;&lt;span style=&quot;color: #d6bb9a&quot;&gt;*&lt;/span&gt;,&lt;span style=&quot;color: #bec0c2&quot;&gt; &lt;/span&gt;&lt;span style=&quot;color: #ff8080&quot;&gt;QMetaObject&lt;/span&gt;::&lt;span style=&quot;color: #ff8080&quot;&gt;Call&lt;/span&gt;,&lt;span style=&quot;color: #bec0c2&quot;&gt; &lt;/span&gt;&lt;span style=&quot;color: #d69aa7&quot;&gt;int&lt;/span&gt;,&lt;span style=&quot;color: #bec0c2&quot;&gt; &lt;/span&gt;&lt;span style=&quot;color: #d69aa7&quot;&gt;void&lt;/span&gt;&lt;span style=&quot;color: #bec0c2&quot;&gt; &lt;/span&gt;&lt;span style=&quot;color: #d6bb9a&quot;&gt;**&lt;/span&gt;);&lt;/pre&gt;&lt;pre style=&quot;margin-top: 0px ; margin-bottom: 0px&quot;&gt;&lt;br&gt;&lt;/pre&gt;&lt;pre style=&quot;margin-top: 0px ; margin-bottom: 0px&quot;&gt;&lt;span style=&quot;font-family: &amp;#34;helvetica&amp;#34; ; white-space: normal ; font-style: italic ; color: rgb(69 , 198 , 214)&quot;&gt;public&lt;/span&gt;&lt;span style=&quot;font-family: &amp;#34;helvetica&amp;#34; ; white-space: normal&quot;&gt;:&lt;/span&gt;&lt;br&gt;&lt;/pre&gt;&lt;pre style=&quot;margin-top: 0px ; margin-bottom: 0px&quot;&gt;&lt;span style=&quot;color: #bec0c2&quot;&gt;    &lt;/span&gt;&lt;span style=&quot;color: #ff8080&quot;&gt;Counter&lt;/span&gt;()；&lt;/pre&gt;&lt;pre style=&quot;margin-top: 0px ; margin-bottom: 0px&quot;&gt;&lt;br&gt;&lt;/pre&gt;&lt;pre style=&quot;margin-top: 0px ; margin-bottom: 0px&quot;&gt;&lt;span style=&quot;color: #bec0c2&quot;&gt;    &lt;/span&gt;&lt;span style=&quot;color: #d69aa7&quot;&gt;int&lt;/span&gt;&lt;span style=&quot;color: #bec0c2&quot;&gt; &lt;/span&gt;&lt;span style=&quot;font-weight: 600&quot;&gt;value&lt;/span&gt;()&lt;span style=&quot;color: #bec0c2&quot;&gt; &lt;/span&gt;&lt;span style=&quot;font-style: italic ; color: #45c6d6&quot;&gt;const；&lt;/span&gt;&lt;/pre&gt;&lt;pre style=&quot;margin-top: 0px ; margin-bottom: 0px&quot;&gt;&lt;br&gt;&lt;/pre&gt;&lt;pre style=&quot;margin-top: 0px ; margin-bottom: 0px&quot;&gt;&lt;span style=&quot;font-style: italic ; color: #45c6d6&quot;&gt;public&lt;/span&gt;:&lt;/pre&gt;&lt;pre style=&quot;margin-top: 0px ; margin-bottom: 0px&quot;&gt;&lt;span style=&quot;color: #bec0c2&quot;&gt;    &lt;/span&gt;&lt;span style=&quot;color: #d69aa7&quot;&gt;void&lt;/span&gt;&lt;span style=&quot;color: #bec0c2&quot;&gt; &lt;/span&gt;&lt;span style=&quot;font-weight: 600&quot;&gt;setValue&lt;/span&gt;(&lt;span style=&quot;color: #d69aa7&quot;&gt;int&lt;/span&gt;&lt;span style=&quot;color: #bec0c2&quot;&gt; &lt;/span&gt;&lt;span style=&quot;color: #d6bb9a&quot;&gt;value&lt;/span&gt;)；&lt;br&gt;&lt;/pre&gt;&lt;pre style=&quot;margin-top: 0px ; margin-bottom: 0px&quot;&gt;&lt;br&gt;&lt;/pre&gt;&lt;pre style=&quot;margin-top: 0px ; margin-bottom: 0px&quot;&gt;&lt;span style=&quot;font-style: italic ; color: #45c6d6&quot;&gt;public&lt;/span&gt;:&lt;/pre&gt;&lt;pre style=&quot;margin-top: 0px ; margin-bottom: 0px&quot;&gt;&lt;span style=&quot;color: #bec0c2&quot;&gt;    &lt;/span&gt;&lt;span style=&quot;color: #d69aa7&quot;&gt;void&lt;/span&gt;&lt;span style=&quot;color: #bec0c2&quot;&gt; &lt;/span&gt;&lt;span style=&quot;font-weight: 600&quot;&gt;valueChanged&lt;/span&gt;(&lt;span style=&quot;color: #d69aa7&quot;&gt;int&lt;/span&gt;&lt;span style=&quot;color: #bec0c2&quot;&gt; &lt;/span&gt;newValue);&lt;/pre&gt;&lt;br&gt;&lt;pre style=&quot;margin-top: 0px ; margin-bottom: 0px&quot;&gt;&lt;span style=&quot;font-family: &amp;#34;helvetica&amp;#34; ; white-space: normal ; font-style: italic ; color: rgb(69 , 198 , 214)&quot;&gt;private&lt;/span&gt;&lt;span style=&quot;font-family: &amp;#34;helvetica&amp;#34; ; white-space: normal&quot;&gt;:&lt;/span&gt;&lt;/pre&gt;&lt;pre style=&quot;margin-top: 0px ; margin-bottom: 0px&quot;&gt;&lt;span style=&quot;color: #bec0c2&quot;&gt;    &lt;/span&gt;&lt;span style=&quot;color: #d69aa7&quot;&gt;int&lt;/span&gt;&lt;span style=&quot;color: #bec0c2&quot;&gt; &lt;/span&gt;m_value;&lt;/pre&gt;&lt;pre style=&quot;margin-top: 0px ; margin-bottom: 0px&quot;&gt;};&lt;/pre&gt;&lt;/pre&gt;" style="text;html=1;strokeColor=#666666;fillColor=#f5f5f5;align=left;verticalAlign=middle;whiteSpace=wrap;rounded=0;fontColor=#333333;" parent="SQ4FsBicLCbHLQmC9l4r-31" vertex="1">
          <mxGeometry x="30" y="55" width="540" height="470" as="geometry" />
        </mxCell>
        <mxCell id="SQ4FsBicLCbHLQmC9l4r-27" value="&lt;h1&gt;Counter.h&lt;/h1&gt;" style="text;html=1;strokeColor=none;fillColor=none;spacing=5;spacingTop=-20;whiteSpace=wrap;overflow=hidden;rounded=0;" parent="SQ4FsBicLCbHLQmC9l4r-31" vertex="1">
          <mxGeometry x="205" y="15" width="190" height="40" as="geometry" />
        </mxCell>
        <mxCell id="SQ4FsBicLCbHLQmC9l4r-32" style="shape=flexArrow;rounded=0;orthogonalLoop=1;jettySize=auto;html=1;entryX=0;entryY=0.5;entryDx=0;entryDy=0;" parent="1" source="SQ4FsBicLCbHLQmC9l4r-28" target="SQ4FsBicLCbHLQmC9l4r-26" edge="1">
          <mxGeometry relative="1" as="geometry" />
        </mxCell>
        <mxCell id="SQ4FsBicLCbHLQmC9l4r-33" value="展开宏" style="rounded=1;whiteSpace=wrap;html=1;fillColor=#dae8fc;strokeColor=#6c8ebf;" parent="1" vertex="1">
          <mxGeometry x="420" y="-1380" width="90" height="30" as="geometry" />
        </mxCell>
        <mxCell id="SQ4FsBicLCbHLQmC9l4r-34" value="moc" style="rounded=1;whiteSpace=wrap;html=1;fillColor=#dae8fc;strokeColor=#6c8ebf;" parent="1" vertex="1">
          <mxGeometry x="1250" y="-1370" width="90" height="30" as="geometry" />
        </mxCell>
        <mxCell id="wKnvfDWZq2TAndVJ7WhY-2" value="&lt;pre style=&quot;margin-top: 0px ; margin-bottom: 0px&quot;&gt;&lt;span style=&quot;font-style: italic ; color: #45c6d6&quot;&gt;struct&lt;/span&gt;&lt;span style=&quot;color: #bec0c2&quot;&gt; &lt;/span&gt;&lt;span style=&quot;color: #ff8080&quot;&gt;QMetaObject&lt;/span&gt;&lt;/pre&gt;&lt;pre style=&quot;margin-top: 0px ; margin-bottom: 0px&quot;&gt;{&lt;/pre&gt;&lt;pre style=&quot;margin-top: 0px ; margin-bottom: 0px&quot;&gt;&lt;span style=&quot;color: #bec0c2&quot;&gt;    &lt;/span&gt;&lt;span style=&quot;font-style: italic ; color: #45c6d6&quot;&gt;enum&lt;/span&gt;&lt;span style=&quot;color: #bec0c2&quot;&gt; &lt;/span&gt;&lt;span style=&quot;color: #ff8080&quot;&gt;Call&lt;/span&gt;&lt;span style=&quot;color: #bec0c2&quot;&gt; &lt;/span&gt;{&lt;span style=&quot;color: #bec0c2&quot;&gt; &lt;/span&gt;&lt;span style=&quot;font-style: italic ; color: #66a334&quot;&gt;InvokeMetaMethod&lt;/span&gt;,&lt;span style=&quot;color: #bec0c2&quot;&gt; &lt;/span&gt;&lt;span style=&quot;font-style: italic ; color: #66a334&quot;&gt;ReadProperty&lt;/span&gt;,&lt;span style=&quot;color: #bec0c2&quot;&gt; &lt;/span&gt;&lt;span style=&quot;font-style: italic ; color: #66a334&quot;&gt;WriteProperty&lt;/span&gt;,&lt;span style=&quot;color: #bec0c2&quot;&gt; &lt;/span&gt;&lt;span style=&quot;font-style: italic ; color: #a8abb0&quot;&gt;/*...*/&lt;/span&gt;&lt;span style=&quot;color: #bec0c2&quot;&gt; &lt;/span&gt;};&lt;/pre&gt;&lt;pre style=&quot;margin-top: 0px ; margin-bottom: 0px&quot;&gt;&lt;span style=&quot;font-family: &amp;#34;helvetica&amp;#34; ; white-space: normal ; font-style: italic ; color: rgb(69 , 198 , 214)&quot;&gt;&amp;nbsp; &amp;nbsp; &amp;nbsp; &amp;nbsp;&amp;nbsp;&lt;/span&gt;&lt;/pre&gt;&lt;pre style=&quot;margin-top: 0px ; margin-bottom: 0px&quot;&gt;&lt;span style=&quot;font-family: &amp;#34;helvetica&amp;#34; ; white-space: normal ; font-style: italic ; color: rgb(69 , 198 , 214)&quot;&gt;&amp;nbsp; &amp;nbsp; &amp;nbsp; &amp;nbsp; struct&lt;/span&gt;&lt;span style=&quot;font-family: &amp;#34;helvetica&amp;#34; ; white-space: normal ; color: rgb(190 , 192 , 194)&quot;&gt; &lt;/span&gt;&lt;span style=&quot;font-family: &amp;#34;helvetica&amp;#34; ; white-space: normal&quot;&gt;{&lt;/span&gt;&lt;span style=&quot;font-family: &amp;#34;helvetica&amp;#34; ; white-space: normal ; color: rgb(190 , 192 , 194)&quot;&gt; &lt;/span&gt;&lt;span style=&quot;font-family: &amp;#34;helvetica&amp;#34; ; white-space: normal ; font-style: italic ; color: rgb(168 , 171 , 176)&quot;&gt;//&lt;/span&gt;&lt;span style=&quot;font-family: &amp;#34;helvetica&amp;#34; ; white-space: normal ; color: rgb(190 , 192 , 194)&quot;&gt; &lt;/span&gt;&lt;span style=&quot;font-family: &amp;#34;helvetica&amp;#34; ; white-space: normal ; font-style: italic ; color: rgb(168 , 171 , 176)&quot;&gt;private&lt;/span&gt;&lt;span style=&quot;font-family: &amp;#34;helvetica&amp;#34; ; white-space: normal ; color: rgb(190 , 192 , 194)&quot;&gt; &lt;/span&gt;&lt;span style=&quot;font-family: &amp;#34;helvetica&amp;#34; ; white-space: normal ; font-style: italic ; color: rgb(168 , 171 , 176)&quot;&gt;data&lt;/span&gt;&lt;br&gt;&lt;/pre&gt;&lt;pre style=&quot;margin-top: 0px ; margin-bottom: 0px&quot;&gt;&lt;span style=&quot;color: #bec0c2&quot;&gt;        &lt;/span&gt;&lt;span style=&quot;font-style: italic ; color: #45c6d6&quot;&gt;const&lt;/span&gt;&lt;span style=&quot;color: #bec0c2&quot;&gt; &lt;/span&gt;&lt;span style=&quot;color: #ff8080&quot;&gt;QMetaObject&lt;/span&gt;&lt;span style=&quot;color: #bec0c2&quot;&gt; &lt;/span&gt;&lt;span style=&quot;color: #d6bb9a&quot;&gt;*&lt;/span&gt;superdata;&lt;/pre&gt;&lt;br&gt;&lt;pre style=&quot;margin-top: 0px ; margin-bottom: 0px&quot;&gt;&lt;span style=&quot;color: #bec0c2&quot;&gt;        &lt;/span&gt;&lt;span style=&quot;font-style: italic ; color: #45c6d6&quot;&gt;const&lt;/span&gt;&lt;span style=&quot;color: #bec0c2&quot;&gt; &lt;/span&gt;&lt;span style=&quot;color: #ff8080&quot;&gt;QByteArrayData&lt;/span&gt;&lt;span style=&quot;color: #bec0c2&quot;&gt; &lt;/span&gt;&lt;span style=&quot;color: #d6bb9a&quot;&gt;*&lt;/span&gt;stringdata;&lt;/pre&gt;&lt;br&gt;&lt;pre style=&quot;margin-top: 0px ; margin-bottom: 0px&quot;&gt;&lt;span style=&quot;color: #bec0c2&quot;&gt;        &lt;/span&gt;&lt;span style=&quot;font-style: italic ; color: #45c6d6&quot;&gt;const&lt;/span&gt;&lt;span style=&quot;color: #bec0c2&quot;&gt; &lt;/span&gt;&lt;span style=&quot;color: #ff8080&quot;&gt;uint&lt;/span&gt;&lt;span style=&quot;color: #bec0c2&quot;&gt; &lt;/span&gt;&lt;span style=&quot;color: #d6bb9a&quot;&gt;*&lt;/span&gt;data;&lt;/pre&gt;&lt;br&gt;&lt;pre style=&quot;margin-top: 0px ; margin-bottom: 0px&quot;&gt;&lt;span style=&quot;color: #bec0c2&quot;&gt;        &lt;/span&gt;&lt;span style=&quot;font-style: italic ; color: #45c6d6&quot;&gt;typedef&lt;/span&gt;&lt;span style=&quot;color: #bec0c2&quot;&gt; &lt;/span&gt;&lt;span style=&quot;color: #d69aa7&quot;&gt;void&lt;/span&gt;&lt;span style=&quot;color: #bec0c2&quot;&gt; &lt;/span&gt;(&lt;span style=&quot;color: #d6bb9a&quot;&gt;*&lt;/span&gt;&lt;span style=&quot;color: #ff8080&quot;&gt;StaticMetacallFunction&lt;/span&gt;)(&lt;span style=&quot;color: #ff8080&quot;&gt;QObject&lt;/span&gt;&lt;span style=&quot;color: #bec0c2&quot;&gt; &lt;/span&gt;&lt;span style=&quot;color: #d6bb9a&quot;&gt;*&lt;/span&gt;,&lt;span style=&quot;color: #bec0c2&quot;&gt; &lt;/span&gt;&lt;span style=&quot;color: #ff8080&quot;&gt;QMetaObject&lt;/span&gt;::&lt;span style=&quot;color: #ff8080&quot;&gt;Call&lt;/span&gt;,&lt;span style=&quot;color: #bec0c2&quot;&gt; &lt;/span&gt;&lt;span style=&quot;color: #d69aa7&quot;&gt;int&lt;/span&gt;,&lt;span style=&quot;color: #bec0c2&quot;&gt; &lt;/span&gt;&lt;span style=&quot;color: #d69aa7&quot;&gt;void&lt;/span&gt;&lt;span style=&quot;color: #bec0c2&quot;&gt; &lt;/span&gt;&lt;span style=&quot;color: #d6bb9a&quot;&gt;**&lt;/span&gt;);&lt;/pre&gt;&lt;br&gt;&lt;pre style=&quot;margin-top: 0px ; margin-bottom: 0px&quot;&gt;&lt;span style=&quot;color: #bec0c2&quot;&gt;        &lt;/span&gt;&lt;span style=&quot;color: #ff8080&quot;&gt;StaticMetacallFunction&lt;/span&gt;&lt;span style=&quot;color: #bec0c2&quot;&gt; &lt;/span&gt;static_metacall;&lt;/pre&gt;&lt;br&gt;&lt;pre style=&quot;margin-top: 0px ; margin-bottom: 0px&quot;&gt;&lt;span style=&quot;color: #bec0c2&quot;&gt;        &lt;/span&gt;&lt;span style=&quot;font-style: italic ; color: #45c6d6&quot;&gt;const&lt;/span&gt;&lt;span style=&quot;color: #bec0c2&quot;&gt; &lt;/span&gt;&lt;span style=&quot;color: #ff8080&quot;&gt;QMetaObject&lt;/span&gt;&lt;span style=&quot;color: #bec0c2&quot;&gt; &lt;/span&gt;&lt;span style=&quot;color: #d6bb9a&quot;&gt;**&lt;/span&gt;relatedMetaObjects;&lt;/pre&gt;&lt;br&gt;&lt;pre style=&quot;margin-top: 0px ; margin-bottom: 0px&quot;&gt;&lt;span style=&quot;color: #bec0c2&quot;&gt;        &lt;/span&gt;&lt;span style=&quot;color: #d69aa7&quot;&gt;void&lt;/span&gt;&lt;span style=&quot;color: #bec0c2&quot;&gt; &lt;/span&gt;&lt;span style=&quot;color: #d6bb9a&quot;&gt;*&lt;/span&gt;extradata;&lt;span style=&quot;color: #bec0c2&quot;&gt; &lt;/span&gt;&lt;span style=&quot;font-style: italic ; color: #a8abb0&quot;&gt;//reserved&lt;/span&gt;&lt;span style=&quot;color: #bec0c2&quot;&gt; &lt;/span&gt;&lt;span style=&quot;font-style: italic ; color: #a8abb0&quot;&gt;for&lt;/span&gt;&lt;span style=&quot;color: #bec0c2&quot;&gt; &lt;/span&gt;&lt;span style=&quot;font-style: italic ; color: #a8abb0&quot;&gt;future&lt;/span&gt;&lt;span style=&quot;color: #bec0c2&quot;&gt; &lt;/span&gt;&lt;span style=&quot;font-style: italic ; color: #a8abb0&quot;&gt;use&lt;/span&gt;&lt;/pre&gt;&lt;br&gt;&lt;pre style=&quot;margin-top: 0px ; margin-bottom: 0px&quot;&gt;&lt;span style=&quot;color: #bec0c2&quot;&gt;    &lt;/span&gt;}&lt;span style=&quot;color: #bec0c2&quot;&gt; &lt;/span&gt;d;&lt;/pre&gt;&lt;pre style=&quot;margin-top: 0px ; margin-bottom: 0px&quot;&gt;};&lt;/pre&gt;" style="text;html=1;strokeColor=#666666;fillColor=#f5f5f5;align=left;verticalAlign=middle;whiteSpace=wrap;rounded=0;fontColor=#333333;" vertex="1" parent="1">
          <mxGeometry x="50" y="-970" width="660" height="320" as="geometry" />
        </mxCell>
        <mxCell id="wKnvfDWZq2TAndVJ7WhY-59" style="edgeStyle=orthogonalEdgeStyle;rounded=0;orthogonalLoop=1;jettySize=auto;html=1;entryX=0;entryY=0.5;entryDx=0;entryDy=0;" edge="1" parent="1" source="wKnvfDWZq2TAndVJ7WhY-7" target="wKnvfDWZq2TAndVJ7WhY-53">
          <mxGeometry relative="1" as="geometry">
            <mxPoint x="800" y="-560" as="targetPoint" />
            <Array as="points">
              <mxPoint x="390" y="-420" />
              <mxPoint x="770" y="-420" />
              <mxPoint x="770" y="-555" />
            </Array>
          </mxGeometry>
        </mxCell>
        <mxCell id="wKnvfDWZq2TAndVJ7WhY-60" value="" style="group" vertex="1" connectable="0" parent="1">
          <mxGeometry x="870" y="-600" width="70" height="180" as="geometry" />
        </mxCell>
        <mxCell id="wKnvfDWZq2TAndVJ7WhY-50" value="" style="rounded=0;whiteSpace=wrap;html=1;fillColor=#d5e8d4;strokeColor=#82b366;" vertex="1" parent="wKnvfDWZq2TAndVJ7WhY-60">
          <mxGeometry y="60" width="70" height="30" as="geometry" />
        </mxCell>
        <mxCell id="wKnvfDWZq2TAndVJ7WhY-51" value="" style="rounded=0;whiteSpace=wrap;html=1;fillColor=#d5e8d4;strokeColor=#82b366;" vertex="1" parent="wKnvfDWZq2TAndVJ7WhY-60">
          <mxGeometry y="90" width="70" height="30" as="geometry" />
        </mxCell>
        <mxCell id="wKnvfDWZq2TAndVJ7WhY-52" value="" style="rounded=0;whiteSpace=wrap;html=1;fillColor=#d5e8d4;strokeColor=#82b366;" vertex="1" parent="wKnvfDWZq2TAndVJ7WhY-60">
          <mxGeometry width="70" height="30" as="geometry" />
        </mxCell>
        <mxCell id="wKnvfDWZq2TAndVJ7WhY-53" value="offset len" style="rounded=0;whiteSpace=wrap;html=1;fillColor=#d5e8d4;strokeColor=#82b366;" vertex="1" parent="wKnvfDWZq2TAndVJ7WhY-60">
          <mxGeometry y="30" width="70" height="30" as="geometry" />
        </mxCell>
        <mxCell id="wKnvfDWZq2TAndVJ7WhY-54" value="" style="rounded=0;whiteSpace=wrap;html=1;fillColor=#d5e8d4;strokeColor=#82b366;" vertex="1" parent="wKnvfDWZq2TAndVJ7WhY-60">
          <mxGeometry y="120" width="70" height="30" as="geometry" />
        </mxCell>
        <mxCell id="wKnvfDWZq2TAndVJ7WhY-55" value="" style="rounded=0;whiteSpace=wrap;html=1;fillColor=#d5e8d4;strokeColor=#82b366;" vertex="1" parent="wKnvfDWZq2TAndVJ7WhY-60">
          <mxGeometry y="150" width="70" height="30" as="geometry" />
        </mxCell>
        <mxCell id="wKnvfDWZq2TAndVJ7WhY-62" value="" style="group" vertex="1" connectable="0" parent="1">
          <mxGeometry x="50" y="-525" width="657" height="30" as="geometry" />
        </mxCell>
        <mxCell id="wKnvfDWZq2TAndVJ7WhY-63" value="" style="group" vertex="1" connectable="0" parent="wKnvfDWZq2TAndVJ7WhY-62">
          <mxGeometry width="657" height="30" as="geometry" />
        </mxCell>
        <mxCell id="wKnvfDWZq2TAndVJ7WhY-3" value="8" style="rounded=0;whiteSpace=wrap;html=1;fillColor=#d5e8d4;strokeColor=#82b366;" vertex="1" parent="wKnvfDWZq2TAndVJ7WhY-63">
          <mxGeometry width="60" height="30" as="geometry" />
        </mxCell>
        <mxCell id="wKnvfDWZq2TAndVJ7WhY-4" value="..." style="rounded=0;whiteSpace=wrap;html=1;fillColor=#d5e8d4;strokeColor=#82b366;" vertex="1" parent="wKnvfDWZq2TAndVJ7WhY-63">
          <mxGeometry x="60" width="60" height="30" as="geometry" />
        </mxCell>
        <mxCell id="wKnvfDWZq2TAndVJ7WhY-5" value="2" style="rounded=0;whiteSpace=wrap;html=1;fillColor=#d5e8d4;strokeColor=#82b366;" vertex="1" parent="wKnvfDWZq2TAndVJ7WhY-63">
          <mxGeometry x="120" width="60" height="30" as="geometry" />
        </mxCell>
        <mxCell id="wKnvfDWZq2TAndVJ7WhY-6" value="14" style="rounded=0;whiteSpace=wrap;html=1;fillColor=#d5e8d4;strokeColor=#82b366;" vertex="1" parent="wKnvfDWZq2TAndVJ7WhY-63">
          <mxGeometry x="180" width="60" height="30" as="geometry" />
        </mxCell>
        <mxCell id="wKnvfDWZq2TAndVJ7WhY-7" value="1" style="rounded=0;whiteSpace=wrap;html=1;fillColor=#d5e8d4;strokeColor=#82b366;" vertex="1" parent="wKnvfDWZq2TAndVJ7WhY-63">
          <mxGeometry x="300" width="59" height="30" as="geometry" />
        </mxCell>
        <mxCell id="wKnvfDWZq2TAndVJ7WhY-8" value="1" style="rounded=0;whiteSpace=wrap;html=1;fillColor=#d5e8d4;strokeColor=#82b366;" vertex="1" parent="wKnvfDWZq2TAndVJ7WhY-63">
          <mxGeometry x="360" width="59" height="30" as="geometry" />
        </mxCell>
        <mxCell id="wKnvfDWZq2TAndVJ7WhY-9" value="24" style="rounded=0;whiteSpace=wrap;html=1;fillColor=#d5e8d4;strokeColor=#82b366;" vertex="1" parent="wKnvfDWZq2TAndVJ7WhY-63">
          <mxGeometry x="420" width="59" height="30" as="geometry" />
        </mxCell>
        <mxCell id="wKnvfDWZq2TAndVJ7WhY-10" value="2" style="rounded=0;whiteSpace=wrap;html=1;fillColor=#d5e8d4;strokeColor=#82b366;" vertex="1" parent="wKnvfDWZq2TAndVJ7WhY-63">
          <mxGeometry x="480" width="59" height="30" as="geometry" />
        </mxCell>
        <mxCell id="wKnvfDWZq2TAndVJ7WhY-11" value="...." style="rounded=0;whiteSpace=wrap;html=1;fillColor=#d5e8d4;strokeColor=#82b366;" vertex="1" parent="wKnvfDWZq2TAndVJ7WhY-63">
          <mxGeometry x="240" width="60" height="30" as="geometry" />
        </mxCell>
        <mxCell id="wKnvfDWZq2TAndVJ7WhY-13" value="0x06" style="rounded=0;whiteSpace=wrap;html=1;fillColor=#d5e8d4;strokeColor=#82b366;" vertex="1" parent="wKnvfDWZq2TAndVJ7WhY-63">
          <mxGeometry x="539" width="59" height="30" as="geometry" />
        </mxCell>
        <mxCell id="wKnvfDWZq2TAndVJ7WhY-61" value="..." style="rounded=0;whiteSpace=wrap;html=1;fillColor=#d5e8d4;strokeColor=#82b366;" vertex="1" parent="wKnvfDWZq2TAndVJ7WhY-63">
          <mxGeometry x="598" width="59" height="30" as="geometry" />
        </mxCell>
        <mxCell id="wKnvfDWZq2TAndVJ7WhY-12" style="edgeStyle=orthogonalEdgeStyle;rounded=0;orthogonalLoop=1;jettySize=auto;html=1;exitX=0.5;exitY=0;exitDx=0;exitDy=0;entryX=0.5;entryY=0;entryDx=0;entryDy=0;" edge="1" parent="wKnvfDWZq2TAndVJ7WhY-63" source="wKnvfDWZq2TAndVJ7WhY-6" target="wKnvfDWZq2TAndVJ7WhY-7">
          <mxGeometry relative="1" as="geometry" />
        </mxCell>
        <mxCell id="wKnvfDWZq2TAndVJ7WhY-46" value="a" style="rounded=0;whiteSpace=wrap;html=1;fillColor=#d5e8d4;strokeColor=#82b366;" vertex="1" parent="1">
          <mxGeometry x="1380" y="-560" width="30" height="30" as="geometry" />
        </mxCell>
        <mxCell id="wKnvfDWZq2TAndVJ7WhY-47" value="..." style="rounded=0;whiteSpace=wrap;html=1;fillColor=#d5e8d4;strokeColor=#82b366;" vertex="1" parent="1">
          <mxGeometry x="1410" y="-560" width="30" height="30" as="geometry" />
        </mxCell>
        <mxCell id="wKnvfDWZq2TAndVJ7WhY-25" value="C" style="rounded=0;whiteSpace=wrap;html=1;fillColor=#d5e8d4;strokeColor=#82b366;" vertex="1" parent="1">
          <mxGeometry x="1110" y="-560" width="30" height="30" as="geometry" />
        </mxCell>
        <mxCell id="wKnvfDWZq2TAndVJ7WhY-36" value="o" style="rounded=0;whiteSpace=wrap;html=1;fillColor=#d5e8d4;strokeColor=#82b366;" vertex="1" parent="1">
          <mxGeometry x="1140" y="-560" width="30" height="30" as="geometry" />
        </mxCell>
        <mxCell id="wKnvfDWZq2TAndVJ7WhY-37" value="u" style="rounded=0;whiteSpace=wrap;html=1;fillColor=#d5e8d4;strokeColor=#82b366;" vertex="1" parent="1">
          <mxGeometry x="1170" y="-560" width="30" height="30" as="geometry" />
        </mxCell>
        <mxCell id="wKnvfDWZq2TAndVJ7WhY-39" value="n" style="rounded=0;whiteSpace=wrap;html=1;fillColor=#d5e8d4;strokeColor=#82b366;" vertex="1" parent="1">
          <mxGeometry x="1200" y="-560" width="30" height="30" as="geometry" />
        </mxCell>
        <mxCell id="wKnvfDWZq2TAndVJ7WhY-40" value="t" style="rounded=0;whiteSpace=wrap;html=1;fillColor=#d5e8d4;strokeColor=#82b366;" vertex="1" parent="1">
          <mxGeometry x="1230" y="-560" width="30" height="30" as="geometry" />
        </mxCell>
        <mxCell id="wKnvfDWZq2TAndVJ7WhY-41" value="e" style="rounded=0;whiteSpace=wrap;html=1;fillColor=#d5e8d4;strokeColor=#82b366;" vertex="1" parent="1">
          <mxGeometry x="1260" y="-560" width="30" height="30" as="geometry" />
        </mxCell>
        <mxCell id="wKnvfDWZq2TAndVJ7WhY-42" value="r" style="rounded=0;whiteSpace=wrap;html=1;fillColor=#d5e8d4;strokeColor=#82b366;" vertex="1" parent="1">
          <mxGeometry x="1290" y="-560" width="30" height="30" as="geometry" />
        </mxCell>
        <mxCell id="wKnvfDWZq2TAndVJ7WhY-43" value="\0" style="rounded=0;whiteSpace=wrap;html=1;fillColor=#d5e8d4;strokeColor=#82b366;" vertex="1" parent="1">
          <mxGeometry x="1320" y="-560" width="30" height="30" as="geometry" />
        </mxCell>
        <mxCell id="wKnvfDWZq2TAndVJ7WhY-44" value="v" style="rounded=0;whiteSpace=wrap;html=1;fillColor=#d5e8d4;strokeColor=#82b366;" vertex="1" parent="1">
          <mxGeometry x="1350" y="-560" width="30" height="30" as="geometry" />
        </mxCell>
        <mxCell id="wKnvfDWZq2TAndVJ7WhY-79" value="d" style="rounded=0;whiteSpace=wrap;html=1;fillColor=#d5e8d4;strokeColor=#82b366;" vertex="1" parent="1">
          <mxGeometry x="1440" y="-560" width="30" height="30" as="geometry" />
        </mxCell>
        <mxCell id="wKnvfDWZq2TAndVJ7WhY-80" value="\0" style="rounded=0;whiteSpace=wrap;html=1;fillColor=#d5e8d4;strokeColor=#82b366;" vertex="1" parent="1">
          <mxGeometry x="1470" y="-560" width="30" height="30" as="geometry" />
        </mxCell>
        <mxCell id="wKnvfDWZq2TAndVJ7WhY-81" value="..." style="rounded=0;whiteSpace=wrap;html=1;fillColor=#d5e8d4;strokeColor=#82b366;" vertex="1" parent="1">
          <mxGeometry x="1500" y="-560" width="30" height="30" as="geometry" />
        </mxCell>
        <mxCell id="wKnvfDWZq2TAndVJ7WhY-83" value="" style="rounded=0;whiteSpace=wrap;html=1;fillColor=#d5e8d4;strokeColor=#82b366;" vertex="1" parent="1">
          <mxGeometry x="1110" y="-590" width="420" height="30" as="geometry" />
        </mxCell>
        <mxCell id="wKnvfDWZq2TAndVJ7WhY-84" style="edgeStyle=orthogonalEdgeStyle;rounded=0;orthogonalLoop=1;jettySize=auto;html=1;entryX=0.25;entryY=1;entryDx=0;entryDy=0;" edge="1" parent="1" source="wKnvfDWZq2TAndVJ7WhY-53" target="wKnvfDWZq2TAndVJ7WhY-44">
          <mxGeometry relative="1" as="geometry">
            <Array as="points">
              <mxPoint x="990" y="-555" />
              <mxPoint x="990" y="-490" />
              <mxPoint x="1358" y="-490" />
            </Array>
          </mxGeometry>
        </mxCell>
      </root>
    </mxGraphModel>
  </diagram>
</mxfile>
